<?xml version="1.0" standalone="no"?>
<!DOCTYPE svg PUBLIC "-//W3C//DTD SVG 1.1//EN" "http://www.w3.org/Graphics/SVG/1.1/DTD/svg11.dtd" >
<svg xmlns="http://www.w3.org/2000/svg">
<metadata></metadata>
<defs>
<font id="exoblack" horiz-adv-x="1366" >
<font-face units-per-em="2048" ascent="1638" descent="-410" />
<missing-glyph horiz-adv-x="512" />
<glyph unicode="&#xfb01;" horiz-adv-x="1318" d="M23 813v240l147 34v60q0 192 130.5 324.5t348.5 138.5q116 2 307.5 -10t243.5 -39v-228l-395 2q-36 0 -64.5 -3.5t-62.5 -16t-57 -34.5t-38.5 -61.5t-15.5 -93.5v-39l688 -20v-1067h-397v813h-291v-813h-397v813h-147z" />
<glyph unicode="&#xfb02;" horiz-adv-x="1486" d="M23 813v240l147 34v80q0 110 25 191t65 129t102 76t124 37.5t143 9.5l659 -6v-1135q0 -97 18 -135t58 -60q86 -43 100 -43v-231h-282q-151 0 -221 88t-70 299v946l-189 2q-77 0 -106 -36.5t-29 -131.5v-80h201v-274h-201v-813h-397v813h-147z" />
<glyph horiz-adv-x="0" />
<glyph unicode="&#xd;" horiz-adv-x="1150" />
<glyph unicode=" "  horiz-adv-x="512" />
<glyph unicode="&#x09;" horiz-adv-x="512" />
<glyph unicode="&#xa0;" horiz-adv-x="512" />
<glyph unicode="!" horiz-adv-x="567" d="M94 1497h377l-43 -1096h-299zM111 47v240q0 51 49 51h235q23 0 35 -14t12 -37v-240q0 -47 -47 -47h-235q-22 0 -35.5 12.5t-13.5 34.5z" />
<glyph unicode="&#x22;" horiz-adv-x="1017" d="M98 1362v137h377v-137l-20 -275h-332zM545 1362v137h377v-137l-21 -275h-336z" />
<glyph unicode="#" horiz-adv-x="1533" d="M23 393l40 271h302l32 174h-305l43 270h316l75 391h271l-76 -391h180l74 391h270l-74 -391h342l-38 -270h-345l-32 -176h344l-37 -271h-369l-75 -391h-271l76 391l-182 2l-76 -393h-270l75 393h-290zM635 664l192 -2l33 176h-192z" />
<glyph unicode="$" horiz-adv-x="1159" d="M63 981v125q0 107 32 186t90.5 125t130.5 68.5t161 25.5v177h221v-177q106 -4 180.5 -19.5t163.5 -47.5v-309q-187 20 -430 20q-91 0 -121 -14.5t-30 -75.5v-23q0 -53 23 -75.5t100 -22.5h131q64 0 118.5 -15.5t93.5 -41.5t69.5 -62t49 -75t31 -82.5t17 -81.5t4.5 -76 v-68q0 -107 -23 -189t-60 -131.5t-91 -81t-107.5 -43.5t-118.5 -13v-168h-221v168q-27 0 -50 1t-41 1.5t-38 3.5t-31 4t-31.5 6t-28 6.5t-31.5 9l-32 10t-39.5 13l-43.5 14.5v309q225 -22 469 -22q66 0 93 19t27 65v33q0 48 -22 69t-86 21h-123q-80 0 -145 19.5t-106 49 t-72 72.5t-46 81.5t-24 84t-11 72.5t-2 55z" />
<glyph unicode="%" horiz-adv-x="1982" d="M49 991v232q0 136 67.5 206t217.5 70h207q146 0 213 -70.5t67 -205.5v-232q0 -136 -67 -206t-217 -70h-207q-146 0 -213.5 70.5t-67.5 205.5zM305 1053q0 -40 15 -61t61 -21h104q48 0 64 21t16 61v108q0 49 -17.5 65.5t-58.5 16.5h-104q-39 0 -59.5 -17t-20.5 -65v-108z M393 0l930 1499h254l-915 -1499h-269zM1163 283v231q0 136 66.5 206.5t216.5 70.5h209q146 0 213 -71t67 -206v-231q0 -136 -67 -206.5t-217 -70.5h-209q-146 0 -212.5 71t-66.5 206zM1419 344q0 -40 15 -61t61 -21h102q48 0 65 21.5t17 60.5v109q0 48 -18 65t-59 17h-103 q-39 0 -59.5 -17t-20.5 -65v-109z" />
<glyph unicode="&#x26;" horiz-adv-x="1464" d="M40 380q-6 110 41 206t136 176l115 102l-86 133q-58 78 -65 165t26 155t91.5 117t125.5 61q84 15 161.5 18.5t162 -8.5t118.5 -18.5t121 -27.5q16 -3 23 -5v-295h-273q-41 0 -64 -7.5t-31 -20t-1.5 -34t19.5 -43.5t36 -55l234 -327l262 225l143 -180l-137 -221l-72 -88 l314 -408h-467l-125 172l-123 -104q-36 -31 -93.5 -51.5t-128 -25t-140.5 8.5t-137.5 56t-112.5 112q-67 102 -73 212zM434 397q20 -24 38 -36t48 -8.5t62 36.5l53 55l-115 150l-61 -59q-78 -72 -25 -138z" />
<glyph unicode="'" horiz-adv-x="524" d="M63 1362v137h400v-137l-21 -275h-356z" />
<glyph unicode="(" horiz-adv-x="845" d="M86 668q0 153 21.5 296t55.5 249.5t75.5 199t82.5 155t75 107.5t56 65l21 21h350q-7 -10 -19.5 -29.5t-47.5 -83t-67 -131t-71.5 -169.5t-67.5 -203.5t-47.5 -228.5t-19.5 -248q0 -181 35 -361t85 -307t100 -228t85 -152l35 -50h-350q-8 6 -22 18t-54 57.5t-76.5 100.5 t-81.5 149t-77 200t-54 256.5t-22 316.5z" />
<glyph unicode=")" horiz-adv-x="845" d="M23 -430q7 9 19 27t47.5 77.5t67.5 124t71 165.5t67 204t47.5 235.5t19.5 264.5q0 166 -35 340t-84.5 303t-99.5 234.5t-85 160.5l-35 55h350q8 -7 22 -21t54 -64.5t76.5 -108.5t81.5 -154t77 -200.5t54 -248t22 -296.5q0 -166 -21.5 -316t-55.5 -257.5t-75.5 -199 t-82.5 -150t-75 -99.5t-56 -58l-21 -18h-350z" />
<glyph unicode="*" horiz-adv-x="856" d="M57 1159v144l285 38l10 -192zM156 856l51 283l186 -49l-100 -277zM322 1479l137 45l125 -258l-181 -70zM360 940l105 162l233 -182l-86 -115zM471 1169l244 166l84 -116l-207 -199z" />
<glyph unicode="+" horiz-adv-x="933" d="M41 571v316h266v268h316v-268h270v-316h-270v-268h-316v268h-266z" />
<glyph unicode="," horiz-adv-x="522" d="M98 51v234q0 55 52 55h227q49 0 49 -55v-308q0 -52 -17.5 -88.5t-45.5 -54t-61.5 -26t-67.5 -7t-62 5t-46 8.5l-17 5v127q28 -1 43 6.5t17.5 15.5t2.5 21v10h-22q-23 0 -37.5 13t-14.5 38z" />
<glyph unicode="-" horiz-adv-x="724" d="M41 436v316h643v-316h-643z" />
<glyph unicode="." horiz-adv-x="526" d="M98 47v240q0 51 49 51h232q51 0 51 -51v-240q0 -47 -51 -47h-232q-22 0 -35.5 12.5t-13.5 34.5z" />
<glyph unicode="/" horiz-adv-x="1028" d="M23 -147l575 1724h408l-576 -1724h-407z" />
<glyph unicode="0" horiz-adv-x="1271" d="M80 393v692q0 200 102.5 307t294.5 107h336q379 0 379 -393v-713q0 -185 -99 -289t-282 -104h-336q-196 0 -295.5 102.5t-99.5 290.5zM477 477q0 -41 11 -67t31.5 -37t36.5 -14t38 -3h86q60 0 87.5 21.5t27.5 97.5v549q0 119 -99 119h-116q-103 0 -103 -119v-547z" />
<glyph unicode="1" horiz-adv-x="776" d="M45 1081v252l246 166h393v-1499h-397v1122z" />
<glyph unicode="2" horiz-adv-x="1191" d="M45 1161v297q143 31 280.5 46.5t342.5 15.5q231 0 349 -133.5t118 -358.5q0 -58 -18 -121t-44 -115t-68.5 -111.5t-76 -100t-83.5 -91.5t-75 -74t-65 -59h430v-356h-1074v344q70 46 177 132.5t222 189t196 202.5t81 154q0 89 -49.5 114t-183.5 25h-459z" />
<glyph unicode="3" horiz-adv-x="1177" d="M35 1147v299q84 29 201 43.5t230 14.5t241 -1q174 -3 280.5 -102t106.5 -277v-80q0 -237 -172 -299q172 -55 172 -315v-59q0 -184 -106.5 -284.5t-295.5 -100.5h-76h-80.5t-72.5 0.5t-78.5 2.5t-69 4.5t-75 7t-64.5 10t-69 14t-60 18.5l2 301h447q48 0 71 0.5t51 3.5 t39 9t22 17t14 27t3 41v19q0 28 -8 46.5t-19.5 29t-39 16.5t-50.5 8t-71 4l-334 15v323l334 21q117 5 146 16q42 16 46 69v15v18q0 25 -6 43.5t-21 30t-28.5 18t-40 9.5t-44.5 3.5t-52 0.5h-473z" />
<glyph unicode="4" horiz-adv-x="1300" d="M23 459l432 1040h426l-322 -854h199v275l55 159h342v-434h123v-305l-123 -59v-277h-397v277h-666z" />
<glyph unicode="5" horiz-adv-x="1212" d="M88 41v317h541q43 0 70 9.5t37 28t12 31.5t2 35v5v63q0 55 -21.5 82t-77.5 27h-90q-49 0 -69.5 -22t-20.5 -70h-381l45 952h948v-356h-561l-8 -209q57 35 133 41q77 6 156 0q116 -10 194.5 -65t114 -140.5t35.5 -196.5v-192q0 -81 -24 -148t-64.5 -111t-94.5 -74 t-112.5 -43t-120.5 -13q-212 0 -331.5 8t-311.5 41z" />
<glyph unicode="6" horiz-adv-x="1222" d="M76 786q0 158 19.5 280t51.5 198.5t79 128t95 75.5t107 33q97 17 225 12.5t240 -19t215 -36.5v-303h-449q-31 0 -55.5 -4.5t-43 -10.5t-32.5 -19.5t-23 -24t-15.5 -32t-9.5 -35t-5 -41.5t-2 -44v-49q54 28 115 35.5t198 7.5q109 0 183.5 -28t114.5 -82.5t56.5 -121 t16.5 -155.5v-186q0 -367 -391 -367h-283q-66 0 -117.5 14t-99 47t-81 91.5t-59 144.5t-38 209t-12.5 282zM473 602q0 -67 4.5 -109.5t14.5 -71.5t30.5 -42.5t46 -19t68.5 -5.5h35q52 0 70 19.5t18 75.5v40q0 71 -12 92t-66 21h-209z" />
<glyph unicode="7" horiz-adv-x="1148" d="M35 1143v356h985l96 -160l-469 -1339h-422l406 1143h-596z" />
<glyph unicode="8" horiz-adv-x="1263" d="M86 367v108q0 56 13 104t49 88t90 48q-32 16 -56.5 35t-40.5 36.5t-27 42.5t-16.5 43t-8 48.5t-3 48.5t-0.5 53v133q0 83 22 146.5t58 102.5t89 63t108.5 33t123.5 9h320q188 0 280.5 -82.5t92.5 -273.5v-90q0 -27 -6 -59t-20.5 -72.5t-48 -70.5t-79.5 -36 q154 -29 154 -290v-156q0 -81 -13.5 -143.5t-40 -103.5t-59 -68t-77.5 -40.5t-87.5 -18.5t-97.5 -5h-318q-80 0 -144.5 14t-105.5 35t-71 54.5t-45 63t-23.5 71t-10 67.5t-1.5 62zM483 430q0 -54 21.5 -74t75.5 -20h106q62 0 79 22t17 72v82q0 46 -18.5 71t-73.5 25h-110 q-59 0 -78 -24t-19 -72v-82zM483 1012q0 -57 20.5 -73.5t76.5 -16.5h106q63 0 79.5 19.5t16.5 70.5v61q0 35 -7.5 57t-23 30.5t-29 11t-36.5 2.5h-106q-53 0 -75 -18t-22 -83v-61z" />
<glyph unicode="9" horiz-adv-x="1222" d="M70 948v187q0 366 391 366h282q79 0 138.5 -20t112.5 -72t86 -139.5t52 -227t19 -329.5q0 -158 -19.5 -280t-51.5 -198.5t-79 -128t-95 -75.5t-107 -33q-97 -17 -225 -12.5t-240 19t-215 36.5v303h448q39 0 69 7.5t49.5 17.5t33 31t20.5 38t10.5 50t4 54t0.5 62 q-54 -28 -115.5 -35.5t-198.5 -7.5q-88 0 -153.5 19.5t-106.5 52.5t-66 83t-34.5 105.5t-9.5 126.5zM467 1010q0 -71 12 -92t66 -21h209q0 67 -4.5 109.5t-14.5 71.5t-30.5 42.5t-46 19t-68.5 5.5h-35q-52 0 -70 -19t-18 -75v-41z" />
<glyph unicode=":" horiz-adv-x="526" d="M98 47v240q0 51 49 51h232q51 0 51 -51v-240q0 -47 -51 -47h-232q-22 0 -35.5 12.5t-13.5 34.5zM98 797v239q0 51 49 51h232q51 0 51 -51v-239q0 -47 -51 -47h-232q-22 0 -35.5 12.5t-13.5 34.5z" />
<glyph unicode=";" horiz-adv-x="526" d="M98 51v234q0 55 52 55h227q49 0 49 -55v-308q0 -52 -17.5 -88.5t-45.5 -54t-61.5 -26t-67.5 -7t-62 5t-46 8.5l-17 5v127q28 -1 43 6.5t17.5 15.5t2.5 21v10h-22q-23 0 -37.5 13t-14.5 38zM98 797v239q0 51 49 51h232q51 0 51 -51v-239q0 -47 -51 -47h-232 q-22 0 -35.5 12.5t-13.5 34.5z" />
<glyph unicode="&#x3c;" horiz-adv-x="882" d="M57 545v348l768 266v-348l-379 -88l379 -109v-348z" />
<glyph unicode="=" horiz-adv-x="956" d="M41 332v315h874v-315h-874zM41 780v316h874v-316h-874z" />
<glyph unicode="&#x3e;" horiz-adv-x="882" d="M57 266v348l379 109l-379 88v348l768 -266v-348z" />
<glyph unicode="?" horiz-adv-x="1114" d="M23 1155v297q276 74 577 61q112 0 203.5 -37t148 -97.5t87 -134t30.5 -150.5v-105q0 -108 -20.5 -185t-69.5 -134t-135 -83t-211 -22v-166h-297v455h188q79 3 114.5 34t35.5 109v31q0 66 -44 96.5t-134 30.5h-473zM317 47v240q0 51 50 51h231q51 0 51 -51v-240 q0 -47 -51 -47h-231q-22 0 -36 13t-14 34z" />
<glyph unicode="@" horiz-adv-x="1818" d="M76 41v549q0 100 26 181t81.5 144.5t152 98.5t227.5 35h355q49 0 84.5 -2t79.5 -10.5t75 -23t62 -40.5t50.5 -62t31.5 -89.5t12 -121.5v-700h-242l-49 111l-12 -13q-12 -14 -35 -33t-54 -37.5t-78.5 -32t-99.5 -13.5q-69 0 -121.5 27t-82 72t-44 96t-14.5 106v67 q0 148 84.5 220.5t241.5 72.5h211q2 31 0 33q0 48 -19.5 63t-70.5 15h-365q-33 0 -58 -3.5t-51.5 -14.5t-43.5 -30.5t-28 -54t-11 -82.5v-487q0 -65 18 -113t48 -72.5t61 -35.5t65 -11h654q118 0 164 59t46 173v844q0 116 -57 179.5t-153 63.5h-828v240q93 19 285 37.5 t366 17.5h177q75 0 143.5 -15.5t136 -54t116.5 -98t79 -154.5t30 -216v-844q0 -278 -124.5 -403t-360.5 -125h-674q-78 0 -147 14.5t-132.5 50.5t-108.5 90t-72 139t-27 193zM796 350q0 -10 1 -12q0 -33 15.5 -47.5t55.5 -14.5q119 0 150 70v88l-160 -12q-35 -3 -48 -14 t-13 -46q-1 -2 -1 -12z" />
<glyph unicode="A" horiz-adv-x="1456" d="M51 0l469 1499h469l455 -1499h-408l-88 262h-403l-86 -262h-408zM635 600h233l-108 401z" />
<glyph unicode="B" horiz-adv-x="1251" d="M92 0v1499h651q451 0 451 -409q0 -67 -23 -134.5t-75 -119.5t-121 -58q114 -18 185 -109t71 -210q0 -246 -117 -352.5t-360 -106.5h-662zM489 336h244q56 0 78.5 35.5t22.5 107.5q0 148 -101 148h-244v-291zM489 942h224q44 0 68 30t24 75q0 62 -26.5 89t-65.5 27h-224 v-221z" />
<glyph unicode="C" horiz-adv-x="1161" d="M63 754q0 150 14.5 264t50.5 210.5t95 158t148.5 95.5t210.5 34q214 0 308 -15t232 -67v-310l-12 2q-13 2 -35 5t-51.5 7t-67 7.5t-77 6.5t-85.5 5t-89 2q-101 0 -133 -11q-60 -20 -85 -102q-26 -89 -26 -296q0 -88 3.5 -147t14.5 -107t27.5 -75.5t45 -45.5t65 -24.5 t90.5 -6.5q96 0 199.5 4.5t159.5 9.5l56 4v-309q-99 -41 -209 -55q-86 -11 -238 -11q-44 0 -93 1q-278 4 -398.5 191t-120.5 575z" />
<glyph unicode="D" d="M92 0v1499h703q100 0 179.5 -26t134.5 -76.5t94 -116t61 -153.5t31.5 -180.5t9.5 -203.5q0 -388 -125 -565.5t-385 -177.5h-703zM489 336h265q86 0 119.5 93.5t33.5 315.5q0 136 -9.5 221.5t-31.5 127.5t-47 55.5t-65 13.5h-265v-827z" />
<glyph unicode="E" horiz-adv-x="1161" d="M82 330v821q0 88 26.5 154t65 102t93.5 58t100 28t96 6q430 0 670 -33v-333h-547q-38 0 -61 -9t-32.5 -29t-11.5 -35t-2 -42v-90l551 -23v-330l-551 -18v-90q0 -31 8.5 -52.5t18.5 -32t31 -16t32.5 -6t36.5 -0.5h527v-331q-94 -13 -256.5 -21.5t-278.5 -11.5l-115 -2h-19 q-39 0 -75 3q-45 4 -104 24t-101 54t-72 100t-30 155z" />
<glyph unicode="F" horiz-adv-x="1161" d="M82 0v1143q0 81 23.5 144.5t60.5 103t88.5 64.5t102.5 35q46 9 96 9h10q430 0 670 -33v-333h-547q-38 0 -61 -9t-32.5 -29t-11.5 -35t-2 -42v-90l551 -23v-330l-551 -18v-557h-397z" />
<glyph unicode="G" horiz-adv-x="1259" d="M63 758q0 146 12.5 255.5t45.5 207.5t88 160.5t143.5 98.5t208.5 36q250 0 335 -10t288 -66v-305q-2 0 -30.5 4.5t-76.5 11.5t-107 13.5t-136 11t-150 4.5q-58 0 -96 -13t-64 -40t-39.5 -79.5t-18.5 -120t-5 -173.5q0 -70 1 -114t4 -89.5t8 -71t15.5 -51t23.5 -37 t34 -21.5t46 -13t60 -3q36 0 64 10t43 24t25 27.5t13 23.5l3 10v153h-101v246q43 23 107.5 35t115.5 14t136 2q65 0 139 -6v-893h-280l-113 100q-31 -42 -56 -61.5t-70.5 -31.5t-127.5 -17q-22 -1 -43 -1q-64 0 -118 13q-71 19 -121.5 54t-87.5 92.5t-59.5 121t-36 147.5 t-18 163.5t-4.5 177.5z" />
<glyph unicode="H" horiz-adv-x="1302" d="M92 0v1499h397v-596h349v596h397v-1499h-397v547h-349v-547h-397z" />
<glyph unicode="I" horiz-adv-x="557" d="M92 0v1499h397v-1499h-397z" />
<glyph unicode="J" horiz-adv-x="727" d="M41 51v316q41 0 71 1.5t54 7.5t39.5 11.5t26.5 19.5t16.5 25.5t9 35.5t4 43t0.5 54v934h397v-1161q0 -45 -3 -80t-13 -80t-34 -81.5t-60 -59.5q-74 -46 -218 -46q-18 0 -37 1q-172 6 -253 59z" />
<glyph unicode="K" horiz-adv-x="1351" d="M92 0v1499h377v-590h82l305 590h457l-412 -754l412 -745h-457l-305 573h-80v-573h-379z" />
<glyph unicode="L" horiz-adv-x="1077" d="M92 319v1180h397v-1036q0 -31 8.5 -52.5t18.5 -32t31 -16t32.5 -6t36.5 -0.5h422v-356h-606q-72 0 -132 18t-107.5 54.5t-74 99.5t-26.5 147z" />
<glyph unicode="M" horiz-adv-x="1814" d="M63 0l160 1499h553l127 -842l135 842h553l162 -1499h-391l-102 817l-125 -817h-455l-131 817l-94 -817h-392z" />
<glyph unicode="N" horiz-adv-x="1386" d="M92 0v1499h402l428 -766v766h397v-1499h-397l-430 745v-745h-400z" />
<glyph unicode="O" d="M76 739q0 104 8 192t24 157.5t36.5 126t50.5 98.5t61.5 74t73 53t80.5 35t89.5 21.5t95 10t101.5 2.5q65 0 115 -3t106 -13t98 -27.5t85.5 -46.5t74.5 -70t59.5 -98.5t45.5 -131t27 -169.5t10 -211q0 -109 -9.5 -200t-26 -161.5t-43.5 -126.5t-58 -96t-73.5 -69.5 t-85.5 -47t-98.5 -28t-108 -14.5t-118.5 -4q-88 0 -151 5.5t-132.5 23.5t-116.5 50t-91.5 87.5t-71 134t-42 190.5t-15.5 256zM473 739q0 -85 2.5 -138t11 -101.5t22.5 -74t40 -45t60.5 -26t86.5 -6.5q91 0 137.5 32.5t66.5 114.5t20 244q0 109 -6 177.5t-19 118t-40 73.5 t-63.5 34.5t-95.5 10.5q-49 0 -79.5 -5t-58 -21t-42 -43t-25.5 -75t-14.5 -111.5t-3.5 -158.5z" />
<glyph unicode="P" horiz-adv-x="1269" d="M90 0v1499h668q50 0 92 -4t91 -16.5t87.5 -33.5t76 -58t62 -87t39.5 -123t15 -163q0 -78 -9.5 -144.5t-27 -115t-41.5 -88.5t-53 -65.5t-61.5 -45.5t-66.5 -29q-35 -10 -70 -16q-28 -5 -56 -5q-6 1 -12 1q-34 2 -66 2q-58 4 -160.5 20t-110.5 21v-549h-397zM487 844h230 q56 0 80 41t24 123q0 153 -104 153h-230v-317z" />
<glyph unicode="Q" d="M76 739q0 104 8 192t24 157.5t36.5 126t50.5 98.5t61.5 74t73 53t80.5 35t89.5 21.5t95 10t101.5 2.5q65 0 115 -3t106 -13t98 -27.5t85.5 -46.5t74.5 -70t59.5 -98.5t45.5 -131t27 -169.5t10 -211q0 -109 -9.5 -200t-26 -161t-43.5 -126t-58 -96t-73.5 -69t-85 -47 t-98.5 -28.5t-108 -14.5t-119 -5q-88 0 -151 5.5t-132.5 23.5t-116.5 50t-91.5 87.5t-71 134t-42 190.5t-15.5 256zM473 739q0 -85 2.5 -138t11 -101.5t22.5 -74t40 -45t60.5 -26t86.5 -6.5q91 0 137.5 32.5t66.5 114.5t20 244q0 109 -6 177.5t-19 118t-40 73.5t-63.5 34.5 t-95.5 10.5q-49 0 -79.5 -5t-58 -21t-42 -43t-25.5 -75t-14.5 -111.5t-3.5 -158.5zM586 -68h209q3 -36 27 -57.5t56 -28.5q26 -7 62 -7q8 0 16 1q46 1 81.5 6.5t80.5 14.5v-287q-48 -8 -96 -8h-31q-64 4 -123 16t-110.5 41.5t-89.5 70t-60 102t-22 136.5z" />
<glyph unicode="R" horiz-adv-x="1267" d="M90 0v1499h670q105 0 185 -23.5t143.5 -76.5t97 -149t33.5 -232q0 -103 -14 -180t-33 -120.5t-53 -76.5t-58 -45.5t-64 -28.5l258 -567h-452l-193 530l-123 29v-559h-397zM489 858h220q38 0 61 9t33.5 32.5t13 48t2.5 70.5q0 73 -23 108t-87 35h-220v-303z" />
<glyph unicode="S" horiz-adv-x="1220" d="M76 981v125q0 98 30.5 174t86 124t128 75t160.5 32q91 6 171 6q108 -1 192 -11q148 -18 272 -62v-309q-187 20 -491 20q-91 0 -121.5 -14.5t-30.5 -75.5v-23q0 -53 23 -75.5t100 -22.5h192q64 0 118.5 -15.5t93.5 -41.5t69.5 -62t49 -75t31 -82.5t17 -81.5t4.5 -76v-68 q0 -110 -24 -193.5t-63 -133t-95 -80t-111.5 -41t-121.5 -10.5q-301 0 -393 9t-240 60v309q72 -7 236 -14.5t294 -7.5q66 0 93.5 19t27.5 65v33q0 48 -22 69t-86 21h-185q-80 0 -144.5 19.5t-106 49t-72 72.5t-46 81.5t-24 84t-10.5 72.5t-2 55z" />
<glyph unicode="T" horiz-adv-x="1243" d="M41 1143v356h1163v-356h-389v-1143h-397v1143h-377z" />
<glyph unicode="U" horiz-adv-x="1341" d="M92 655v844h397v-844q0 -51 1 -79t4.5 -66t11.5 -58.5t22 -44t35 -34.5t52.5 -19t72.5 -8q34 0 60.5 5t45.5 18t33 26t22.5 37t13.5 43.5t7.5 54t3 59t0.5 66.5v844h400v-844q0 -137 -21 -245t-50.5 -177t-82.5 -117.5t-95.5 -72.5t-113 -36.5t-111 -14.5t-112.5 -2 q-169 0 -238 12q-180 32 -265 176q-93 159 -93 477z" />
<glyph unicode="V" horiz-adv-x="1431" d="M51 1499h418l248 -1012l268 1012h418l-449 -1499h-479z" />
<glyph unicode="W" horiz-adv-x="2084" d="M51 1499h418l248 -1012l186 1012h418l-76 -311l209 -701l186 1012h418l-366 -1499h-480l-137 489l-121 -489h-479z" />
<glyph unicode="X" horiz-adv-x="1390" d="M51 1499h441l215 -416l215 416h440l-457 -756l447 -743h-441l-204 401l-209 -401h-441l449 743z" />
<glyph unicode="Y" horiz-adv-x="1390" d="M51 1499h432l215 -663l232 663h432l-473 -1089v-410h-397v410z" />
<glyph unicode="Z" horiz-adv-x="1130" d="M41 0v356l586 787h-586v356h1051v-356l-525 -787h525v-356h-1051z" />
<glyph unicode="[" horiz-adv-x="704" d="M98 25v1286q0 207 96 310t306 103h184v-315h-61q-62 0 -94.5 -36t-32.5 -124v-1204q0 -88 32.5 -124t94.5 -36h61v-315h-184q-402 0 -402 455z" />
<glyph unicode="\" horiz-adv-x="1028" d="M23 1577h407l576 -1724h-408z" />
<glyph unicode="]" horiz-adv-x="704" d="M23 -115h61q62 0 94.5 36t32.5 124v1204q0 88 -32.5 124t-94.5 36h-61v315h184q210 0 305.5 -103t95.5 -310v-1286q0 -455 -401 -455h-184v315z" />
<glyph unicode="^" horiz-adv-x="774" d="M57 1087l205 287h268l187 -287h-228l-100 105l-102 -105h-230zM530 1374z" />
<glyph unicode="_" horiz-adv-x="1380" d="M41 -2v315h1298v-315h-1298z" />
<glyph unicode="`" horiz-adv-x="499" d="M23 1380h296l158 -293h-223z" />
<glyph unicode="a" horiz-adv-x="1062" d="M45 293v84q0 49 9.5 92.5t34 86t63.5 73t103 49t146 18.5q104 -1 156.5 -1t52.5 1q2 13 0 15q0 23 -3.5 40t-7 28.5t-14.5 19t-17 11t-25 5.5t-26.5 2h-33.5l-401 -22v231q101 49 203.5 65.5t263.5 16.5q114 0 194 -16.5t142 -57.5t92.5 -116t30.5 -187v-731h-320 l-78 111q-8 -20 -23 -39t-41 -40.5t-69 -33.5q-37 -10 -81 -10h-15q-74 3 -133.5 25t-96.5 53.5t-61.5 72.5t-34.5 79t-10 75zM442 358q0 -15 2.5 -27t5 -20t10 -13.5t10.5 -8.5t14 -4.5t13.5 -1.5h16h14.5q37 0 57.5 16.5t22.5 33.5l2 17v123l-106 -10q-22 -2 -36 -10.5 t-19 -23.5t-6 -25t-1 -28v-5v-13z" />
<glyph unicode="b" horiz-adv-x="1144" d="M70 0v1608h397v-566q118 62 270 62q88 0 150 -22.5t101.5 -64t62 -113.5t31 -157t8.5 -208q0 -294 -84 -422.5t-269 -128.5q-84 0 -142 27t-126 85l-59 -100h-340zM469 354q26 -45 133 -45q33 0 50.5 15t28.5 71t11 164q0 111 -11.5 169.5t-29 74.5t-49.5 16 q-106 0 -133 -31v-434z" />
<glyph unicode="c" horiz-adv-x="1003" d="M57 545q0 155 26 265t75.5 172t112.5 89t145 27h43.5h55t59 -1.5t69 -4t69.5 -8t77 -13.5t75.5 -20t79.5 -27v-233q-123 12 -305 12h-6h-38t-32 -2t-28 -5t-22 -9.5t-19.5 -16t-14 -24t-11.5 -33.5t-7 -44.5t-5 -56.5t-1 -71q0 -48 1.5 -83t7 -62.5t10.5 -45.5t18 -30.5 t23.5 -19t33 -10.5t40 -4t50.5 -1q84 0 163.5 4t117.5 8l38 4v-233q-44 -31 -96.5 -49.5t-114.5 -24.5q-63 -6 -109 -7h-33q-37 0 -85 1q-72 2 -104 2q-359 0 -359 555z" />
<glyph unicode="d" horiz-adv-x="1144" d="M57 539q0 128 8.5 214.5t30.5 157.5t62.5 111t101.5 61t150 21q152 0 270 -62v566h397v-1608h-340l-59 100q-68 -58 -126 -85t-142 -27q-125 0 -201 51.5t-114 173t-38 326.5zM455 559q0 -108 11 -164t28.5 -71t50.5 -15q107 0 133 45v434q-27 31 -133 31 q-32 0 -49.5 -16t-29 -74.5t-11.5 -169.5z" />
<glyph unicode="e" horiz-adv-x="1075" d="M57 549q0 137 16.5 231t49 157t91 97.5t133 48t185.5 13.5q98 0 163.5 -5t126 -20.5t96 -42.5t63 -72.5t38.5 -110t11 -155.5q0 -159 -81.5 -225t-239.5 -66h-254q0 -27 5 -47t12 -33t21.5 -21t27.5 -12t36.5 -4.5t41.5 -0.5t49.5 1t53.5 1q116 0 156.5 2.5t151.5 19.5 v-258q-30 -14 -67 -24t-86 -16t-84.5 -10t-98.5 -5q-62 -2 -88 -2h-36h-58h-76q-201 0 -280 133t-79 426zM455 651h118q26 0 43 18.5t17 47.5q0 62 -11.5 83t-60.5 21q-36 0 -54 -4.5t-32 -22.5q-14 -16 -18 -50q-3 -22 -3 -56q0 -16 1 -37z" />
<glyph unicode="f" horiz-adv-x="833" d="M23 813v240l147 34v203q0 179 91.5 249.5t285.5 70.5q168 0 264 -49v-228l-149 2q-21 0 -35.5 -2.5t-25 -5.5t-17 -14.5t-10.5 -18t-5.5 -28.5t-1.5 -33v-43v-7.5v-7v-8.5v-80h201v-274h-201v-813h-397v813h-147z" />
<glyph unicode="g" horiz-adv-x="1159" d="M51 188q0 160 131 213q-62 39 -91.5 124.5t-29.5 179.5q0 195 98 291t298 96h680v-218l-84 -36q13 -37 17.5 -75t4.5 -120q0 -58 -10.5 -106t-38 -92t-72 -74t-115 -48t-163.5 -18h-197h-14.5h-16.5t-14.5 -1t-15 -3.5t-10.5 -6.5t-8.5 -10.5t-2.5 -15.5q0 -15 5.5 -24.5 t19.5 -13t24.5 -4.5t32.5 -1h250q369 0 369 -354v-109q0 -147 -88.5 -231t-280.5 -84h-307q-154 0 -251 80t-97 235v109l106 72q-51 22 -90 84.5t-39 160.5zM459 705q0 -69 19 -87t67 -18h45q27 0 41 2.5t26 12.5t16.5 31.5t4.5 58.5q0 32 -6 51.5t-20.5 28t-27.5 10.5 t-36 2h-49q-51 0 -65.5 -22t-14.5 -70zM473 -72v-102q0 -54 17 -69t73 -15h58q13 0 23.5 1.5t18.5 2.5t14 5t10.5 6t7 8.5t4 8t2.5 10.5t1 10v11v11v47q0 26 -21 45t-58 20h-68h-82z" />
<glyph unicode="h" horiz-adv-x="1136" d="M70 0v1602h395v-621q40 38 69.5 60.5t92 43.5t139.5 21q59 0 106.5 -11t80 -29.5t56 -49t37.5 -62.5t22 -77t10.5 -86t2.5 -95v-696h-397v705q0 62 -16 84t-52 22q-114 0 -149 -76v-735h-397z" />
<glyph unicode="i" horiz-adv-x="516" d="M57 1237v240q0 51 49 51h308q45 0 45 -51v-240q0 -47 -45 -47h-308q-22 0 -35.5 12.5t-13.5 34.5zM59 0v1087h398v-1087h-398z" />
<glyph unicode="j" horiz-adv-x="540" d="M70 1237v240q0 51 49 51h307q23 0 35 -14t12 -37v-240q0 -47 -47 -47h-307q-22 0 -35.5 12.5t-13.5 34.5zM74 -553v1640h397v-1095v-48q0 -80 -3 -140q-3 -77 -25.5 -179.5t-65.5 -177.5h-303z" />
<glyph unicode="k" horiz-adv-x="1239" d="M70 0v1602h397v-861h41l221 346h488l-347 -483l347 -604h-465l-244 467h-41v-467h-397z" />
<glyph unicode="l" horiz-adv-x="665" d="M70 387v1217h397v-1135q0 -97 18 -135t58 -60q86 -43 100 -43v-231h-283q-151 0 -220.5 88t-69.5 299z" />
<glyph unicode="m" horiz-adv-x="1755" d="M70 0v1087h331l66 -106q38 35 57 50t56 36.5t81.5 30t104.5 8.5q197 0 266 -125q48 31 73.5 45.5t74 37t98.5 32.5t106 10q83 0 141.5 -21.5t92 -55.5t52.5 -90.5t24.5 -111t5.5 -131.5v-696h-397v705q0 62 -16 84t-52 22q-117 0 -156 -61q0 -8 1 -26.5t1 -27.5v-696 h-397v705q0 62 -16 84t-52 22q-114 0 -149 -76v-735h-397z" />
<glyph unicode="n" horiz-adv-x="1136" d="M70 0v1087h331l66 -106q28 26 42 38t44 32.5t56.5 29.5t67.5 17t89 8q59 0 106.5 -11t80 -29.5t56 -49t37.5 -62.5t22 -77t10.5 -86t2.5 -95v-696h-397v705q0 62 -16 84t-52 22q-114 0 -149 -76v-735h-397z" />
<glyph unicode="o" horiz-adv-x="1134" d="M57 528q0 135 17.5 230t53 162t97.5 105.5t144 55.5t198 17q194 0 303 -53t158 -175.5t49 -341.5q0 -155 -24.5 -255t-84.5 -164.5t-156 -91.5t-245 -27q-145 0 -241.5 29t-157 95t-86 165.5t-25.5 248.5zM455 528q0 -60 1 -93.5t5 -64.5t10.5 -44.5t20.5 -24.5 t30.5 -13.5t44.5 -2.5q83 0 98 34.5t15 208.5q0 172 -9 212q-11 47 -50 58q-20 5 -54 5q-81 0 -96.5 -37.5t-15.5 -192.5v-45z" />
<glyph unicode="p" horiz-adv-x="1144" d="M70 -553v1640h340l59 -100q69 59 126.5 86t141.5 27q184 0 268.5 -130.5t84.5 -420.5q0 -110 -8.5 -191.5t-31 -155t-61.5 -119.5t-102 -72.5t-150 -26.5q-154 0 -270 61v-598h-397zM469 299q27 -31 133 -31q32 0 49.5 16t29 74.5t11.5 169.5q0 108 -11 164t-28.5 71 t-50.5 15q-107 0 -133 -45v-434z" />
<glyph unicode="q" horiz-adv-x="1136" d="M57 549q0 295 106.5 423t309.5 128q169 0 342 -20.5t254 -53.5v-1579h-397v612q-33 -43 -80.5 -61t-118.5 -18q-230 0 -323 133.5t-93 435.5zM455 563q0 -182 20 -239.5t96 -57.5q70 0 101 39v520h-97q-29 0 -50 -10t-34 -31.5t-20.5 -42t-11 -56.5t-4 -59t-0.5 -63z" />
<glyph unicode="r" horiz-adv-x="839" d="M70 0v1087h352l45 -137q28 60 93 104t142 44q61 0 97 -11v-380h-162q-27 0 -41.5 -0.5t-38.5 -4t-36.5 -11t-27 -20.5t-20.5 -35t-6 -52v-584h-397z" />
<glyph unicode="s" horiz-adv-x="1046" d="M45 692v94q0 66 15 120t47 98.5t88.5 69t132.5 24.5h57h133t116 -2t111.5 -7t85.5 -12t73 -21t42 -32v-233h-459q-17 0 -24.5 -1.5t-14 -9.5t-6.5 -26v-13q0 -16 7 -23t14 -8t24 -1h205q162 0 234.5 -80.5t72.5 -214.5v-121q0 -80 -22.5 -140.5t-61.5 -95t-84.5 -51 t-97.5 -16.5q-315 0 -402 6q-192 14 -241 70v233h475q24 0 30.5 8.5t6.5 26.5v10q0 21 -7 29t-30 8h-196q-150 0 -237 78.5t-87 232.5z" />
<glyph unicode="t" horiz-adv-x="788" d="M23 815v197l153 78l57 303h340v-303h183v-275h-183v-344q0 -69 10 -110.5t24 -58t40 -30.5q87 -43 101 -43v-231h-308q-129 0 -196.5 91.5t-67.5 299.5v426h-153z" />
<glyph unicode="u" horiz-adv-x="1136" d="M57 391v696h398v-704q0 -62 15.5 -84.5t51.5 -22.5q115 0 150 76v735h397v-1087h-332l-65 106q-21 -13 -61.5 -42.5t-63 -43t-69 -26t-105.5 -12.5q-83 0 -141.5 21.5t-92 55.5t-52.5 90t-24.5 110.5t-5.5 131.5z" />
<glyph unicode="v" horiz-adv-x="1204" d="M23 1087h421l154 -659l164 659h420l-361 -1087h-459z" />
<glyph unicode="w" horiz-adv-x="1734" d="M23 1087h421l134 -659l122 659h385l-47 -247l133 -412l119 659h424l-299 -1087h-459l-98 281l-78 -281h-458z" />
<glyph unicode="x" horiz-adv-x="1253" d="M29 0l360 545l-360 542h475l121 -249l125 249h475l-367 -548l350 -539h-458l-123 248l-123 -248h-475z" />
<glyph unicode="y" horiz-adv-x="1226" d="M25 1087h411l125 -688q14 -76 88 -80l142 768h403l-293 -1431l-145 -209h-295l121 553q-316 0 -387 319z" />
<glyph unicode="z" horiz-adv-x="1001" d="M35 772v315h934v-315l-371 -455h371v-315h-903v311l403 459h-434z" />
<glyph unicode="{" horiz-adv-x="659" d="M23 543v280q122 11 122 109v411q0 381 492 381v-315q-62 0 -78 -42t-16 -187v-279q0 -109 -54.5 -159t-160.5 -58q213 -43 213 -211v-407q0 -49 1 -73t6 -54t15 -43t28 -22t46 -9v-295q-269 0 -381.5 80.5t-112.5 271.5v512q0 54 -30 83.5t-90 25.5z" />
<glyph unicode="|" horiz-adv-x="512" d="M98 -147v1724h316v-1724h-316z" />
<glyph unicode="}" horiz-adv-x="659" d="M23 -135q28 0 46 9t28 22t15 43t6 54t1 73v407q0 168 213 211q-106 8 -160.5 58t-54.5 159v279q0 145 -16 187t-78 42v315q491 0 491 -381v-411q0 -98 123 -109v-280q-60 4 -90.5 -25.5t-30.5 -83.5v-512q0 -191 -112 -271.5t-381 -80.5v295z" />
<glyph unicode="~" horiz-adv-x="827" d="M57 1225q44 64 108.5 107.5t143.5 43.5q46 0 111.5 -35.5t105.5 -35.5q108 -5 191 81l53 -151q-41 -61 -99.5 -104.5t-129.5 -43.5q-45 0 -122 36t-116 36q-57 0 -98.5 -16.5t-91.5 -55.5z" />
<glyph unicode="&#xa1;" horiz-adv-x="577" d="M96 -553l41 1096h301l39 -1096h-381zM121 662v235q0 21 13.5 33t35.5 14h233q20 -2 35 -17t15 -36v-229q0 -56 -45 -56h-238q-22 0 -35.5 14t-13.5 42z" />
<glyph unicode="&#xa2;" horiz-adv-x="993" d="M45 545q0 155 26.5 265t76.5 172t113 89t145 27v200h221v-204q170 -14 307 -70v-233q-125 12 -307 12h-6q-62 0 -86.5 -4t-51.5 -28.5t-34 -78t-7 -151.5q0 -43 2 -75t4.5 -58t9.5 -44.5t12.5 -32t19 -22t24 -13.5t31 -7.5t37 -3t45.5 -0.5q84 0 163.5 4t117.5 8l38 4 v-233q-114 -80 -328 -80v-183h-221v185q-352 7 -352 555z" />
<glyph unicode="&#xa3;" horiz-adv-x="1171" d="M57 0v305l127 51v258h-127v195l127 55v88q0 115 16.5 202t51 147t80 99t113 60.5t140 30t169.5 8.5q52 0 142 -8.5t154 -16.5l64 -8v-321h-377q-94 0 -124.5 -26t-30.5 -122v-133l370 -35v-215h-370v-258h530v-356h-1055z" />
<glyph unicode="&#xa4;" horiz-adv-x="894" d="M59 879l113 120l100 -96q80 55 181 55q91 0 168 -49l92 99l125 -109l-103 -106q41 -71 41 -160q0 -108 -61 -191l92 -88l-107 -125l-114 109q-66 -29 -133 -29q-93 0 -170 49l-95 -100l-120 115l102 104q-41 77 -41 156q0 82 35 147zM324 633q0 -54 37.5 -91.5 t91.5 -37.5t91.5 37.5t37.5 91.5t-37.5 92.5t-91.5 38.5t-91.5 -38.5t-37.5 -92.5z" />
<glyph unicode="&#xa5;" horiz-adv-x="1355" d="M23 1499h432l215 -663l231 663h432l-340 -780h109v-203h-242v-51h242v-203h-242v-262h-397v262h-236v203h236v51h-236v203h111z" />
<glyph unicode="&#xa6;" horiz-adv-x="512" d="M98 -147v671h316v-671h-316zM98 879v698h316v-698h-316z" />
<glyph unicode="&#xa7;" horiz-adv-x="1089" d="M63 1208v62q0 157 76.5 246.5t231.5 89.5q431 0 581 -39v-277h-438q-30 0 -41.5 -12.5t-11.5 -36.5v-12q0 -51 57 -51h158q178 0 266 -60t88 -196v-25q0 -203 -147 -252q45 -7 76 -33.5t44.5 -64t19 -69t5.5 -62.5v-88q0 -77 -17 -138t-44.5 -99t-65.5 -63t-76 -34.5 t-80 -9.5q-478 0 -606 39v276h439q33 0 44 9t11 34v25q0 22 -13 32.5t-45 10.5h-163q-167 0 -256.5 56.5t-89.5 195.5v24v21.5v27.5t1.5 29t4 32t8 31t13 32.5t19 29.5t26 28t35 22.5t44.5 18.5q-43 21 -73.5 48.5t-45.5 52t-23.5 56t-10 49.5t-1.5 44zM461 772 q0 -41 18 -54t56 -13h20q48 0 63 13.5t15 55.5v37q0 18 -2 28.5t-9 21.5t-23.5 15.5t-43.5 4.5h-20q-27 0 -43 -5t-22 -17.5t-7.5 -22t-1.5 -29.5v-35z" />
<glyph unicode="&#xa8;" horiz-adv-x="905" d="M57 1192q0 55 40 94t96 39q55 0 94 -38.5t39 -94.5t-39 -95.5t-94 -39.5q-56 0 -96 40t-40 95zM580 1192q0 55 39.5 94t95.5 39q55 0 94 -38.5t39 -94.5t-39 -95.5t-94 -39.5t-95 39.5t-40 95.5z" />
<glyph unicode="&#xa9;" horiz-adv-x="1622" d="M63 754q0 90 6.5 167t24 154.5t45 139.5t72 116t102.5 90.5t139 57t179 20.5h409q122 0 213.5 -36t149.5 -98.5t94 -158.5t50 -204.5t14 -247.5q0 -195 -37.5 -341t-107.5 -235.5t-164 -133.5t-212 -44h-409q-145 0 -254.5 53.5t-178 154t-102 237t-33.5 309.5zM297 754 q0 -254 82.5 -397.5t251.5 -143.5h389q57 0 102.5 16t84.5 54.5t65 99.5t40.5 154.5t14.5 216.5q0 61 -1.5 107.5t-8.5 105t-18.5 101t-33 86t-51 70.5t-74 44.5t-100.5 17.5h-409q-59 0 -105 -12.5t-90.5 -48t-74 -93.5t-47 -154t-17.5 -224zM444 748q0 238 75 342t220 104 q255 0 385 -49v-189q-179 25 -303 25q-58 0 -87.5 -20t-42.5 -70.5t-13 -149.5q0 -126 37 -176.5t121 -50.5q132 0 301 33v-189q-49 -27 -119.5 -40t-119.5 -15t-140 -2q-314 0 -314 447z" />
<glyph unicode="&#xaa;" horiz-adv-x="753" d="M35 528v160h686v-160h-686zM35 961v53q0 40 11.5 73.5t37.5 64t76 48t121 17.5q141 -2 141 0q2 6 0 8q0 26 -4.5 40t-19.5 20t-25 6.5t-39 0.5q-74 0 -142.5 -4.5t-100.5 -9.5l-32 -4v176q68 36 139 48.5t181 12.5q86 0 145 -10.5t105.5 -37.5t69 -76.5t22.5 -124.5v-488 h-238l-61 84q-13 -35 -51.5 -65t-104.5 -27q-63 2 -110.5 22t-72.5 50.5t-36.5 61.5t-11.5 61zM309 1008q0 -41 34 -45h24q27 0 41 10.5t14 20.5v10v73l-74 -6q-9 -1 -16 -3t-11.5 -6.5t-7 -7.5t-3.5 -9.5t-1 -9v-10.5v-9v-8z" />
<glyph unicode="&#xab;" horiz-adv-x="1243" d="M57 725l422 416l199 -195l-225 -221l227 -225l-191 -201zM563 725l422 416l199 -195l-226 -221l228 -225l-191 -201z" />
<glyph unicode="&#xac;" horiz-adv-x="956" d="M41 463v295h874v-432h-294v137h-580z" />
<glyph unicode="&#xad;" horiz-adv-x="724" d="M41 436v316h643v-316h-643z" />
<glyph unicode="&#xae;" horiz-adv-x="1622" d="M63 754q0 90 6.5 167t24 154.5t45 139.5t72 116t102.5 90.5t139 57t179 20.5h409q122 0 213.5 -36t149.5 -98.5t94 -158.5t50 -204.5t14 -247.5q0 -195 -37.5 -341t-107.5 -235.5t-164 -133.5t-212 -44h-409q-145 0 -254.5 53.5t-178 154t-102 237t-33.5 309.5zM297 754 q0 -254 82.5 -397.5t251.5 -143.5h389q57 0 102.5 16t84.5 54.5t65 99.5t40.5 154.5t14.5 216.5q0 61 -1.5 107.5t-8.5 105t-18.5 101t-33 86t-51 70.5t-74 44.5t-100.5 17.5h-409q-59 0 -105 -12.5t-90.5 -48t-74 -93.5t-47 -154t-17.5 -224zM485 313v875h383 q55 0 100.5 -13t87 -43t64.5 -88t23 -139q0 -118 -31 -180.5t-100 -87.5l172 -324h-248l-158 308l-59 24v-332h-234zM719 817h80q78 0 94 13t16 73q0 48 -19.5 60t-90.5 12h-80v-158z" />
<glyph unicode="&#xaf;" horiz-adv-x="712" d="M57 1087v191h598v-191h-598z" />
<glyph unicode="&#xb0;" horiz-adv-x="530" d="M57 1294q0 88 61.5 149.5t147.5 61.5t146.5 -61.5t60.5 -149.5t-60.5 -148.5t-146.5 -60.5q-87 0 -148 61t-61 148zM193 1294q0 -31 21 -51t52 -20t51.5 20t20.5 51t-20.5 52.5t-51.5 21.5t-52 -21.5t-21 -52.5z" />
<glyph unicode="&#xb1;" horiz-adv-x="980" d="M66 117v315h852v-315h-852zM66 772v315h266v269h315v-269h271v-315h-271v-268h-315v268h-266z" />
<glyph unicode="&#xb2;" horiz-adv-x="841" d="M35 1470v224q195 45 434 45q161 0 243.5 -85.5t82.5 -228.5q0 -51 -24.5 -107.5t-56.5 -99.5t-81.5 -92t-79.5 -74.5t-70 -56.5h312v-268h-752v258q66 39 166.5 113t193.5 162t93 129q0 52 -33.5 66.5t-124.5 14.5h-303z" />
<glyph unicode="&#xb3;" horiz-adv-x="841" d="M35 1460v223q143 54 469 46q122 -2 196 -68.5t74 -185.5v-54q0 -78 -30.5 -126.5t-98.5 -71.5q129 -36 129 -211v-39q0 -123 -74 -189.5t-206 -66.5h-48.5h-50.5t-46 0.5t-49.5 1t-44.5 2t-47.5 4t-42 5.5t-44 7.5t-39 10t-39.5 12.5l2 225h297q86 0 109.5 6.5t23.5 38.5 v8q0 30 -26 38.5t-99 10.5l-221 11v243l221 15q92 2 110.5 11.5t18.5 35.5v8q0 12 -4 20.5t-14 14t-19 8.5t-27 4t-29.5 1.5t-35.5 0.5h-315z" />
<glyph unicode="&#xb4;" horiz-adv-x="499" d="M23 1087l157 293h297l-231 -293h-223z" />
<glyph unicode="&#xb5;" horiz-adv-x="1196" d="M104 391v696h398v-704q0 -62 15.5 -84.5t51.5 -22.5q115 0 150 76v735h397v-1087h-332l-65 106q-17 -12 -46.5 -32.5t-52 -35.5t-45.5 -26q-30 -15 -73 -24v-541h-398v944z" />
<glyph unicode="&#xb6;" horiz-adv-x="1175" d="M45 1022v190q0 142 85.5 214.5t234.5 72.5h790v-258h-82v-1241h-254v1245h-90v-1798h-254v1315q-1 0 -15.5 -10t-38 -17.5t-56.5 -7.5q-85 0 -148 23t-100 64.5t-54.5 93.5t-17.5 114zM299 1063q0 -29 4.5 -46.5t17.5 -25t25.5 -9t38.5 -1.5h90v264h-90 q-59 0 -72.5 -17.5t-13.5 -84.5v-80z" />
<glyph unicode="&#xb7;" horiz-adv-x="526" d="M98 672v239q0 52 49 52h232q51 0 51 -52v-239q0 -47 -51 -47h-232q-22 0 -35.5 12.5t-13.5 34.5z" />
<glyph unicode="&#xb8;" horiz-adv-x="487" d="M57 -213l76 31q42 19 49.5 33t7.5 73h240q0 -160 -55 -229.5t-193 -69.5h-125v162z" />
<glyph unicode="&#xb9;" horiz-adv-x="552" d="M18 1448v164l166 112h295v-997h-299v748z" />
<glyph unicode="&#xba;" horiz-adv-x="815" d="M35 1126q0 112 19 184t64.5 116t114 61.5t175.5 17.5q210 0 292 -82.5t82 -296.5q0 -202 -80 -280t-294 -78q-208 0 -290.5 81t-82.5 277zM66 528v160h686v-160h-686zM334 1128q0 -92 12.5 -115.5t61.5 -23.5q29 0 42 3t21.5 19t10 40t1.5 77q0 106 -10.5 131t-64.5 25 q-53 0 -63.5 -27t-10.5 -129z" />
<glyph unicode="&#xbb;" horiz-adv-x="1243" d="M57 500l228 225l-226 221l199 195l422 -416l-432 -426zM563 500l228 225l-226 221l199 195l422 -416l-432 -426z" />
<glyph unicode="&#xbc;" horiz-adv-x="1953" d="M18 1243v164l166 113h295v-998h-299v748zM285 0l954 1577h268l-954 -1577h-268zM1049 299l288 698h305l-215 -559h123v178l43 105h256v-283h82v-229l-82 -45v-160h-299v160h-454z" />
<glyph unicode="&#xbd;" horiz-adv-x="2058" d="M18 1243v164l166 113h295v-998h-299v748zM264 0l955 1577h268l-955 -1577h-268zM1241 743v224q198 45 440 45q164 0 248 -85.5t84 -228.5q0 -51 -25.5 -107.5t-58.5 -99.5t-84 -92.5t-81 -74t-72 -56.5h321v-268h-764v260q69 43 171 119.5t198 169.5t96 137 q0 36 -34.5 46.5t-127.5 10.5h-311z" />
<glyph unicode="&#xbe;" horiz-adv-x="2183" d="M35 1257v224q86 32 201 39.5t276 3.5q123 -2 198.5 -68.5t75.5 -185.5v-53q0 -78 -30.5 -127t-98.5 -72q129 -36 129 -211v-39q0 -122 -75 -189t-209 -67h-49h-51t-46.5 0.5t-50.5 1t-45.5 2t-48 4t-43 5.5t-45.5 7.5t-39.5 10t-40.5 12.5l2 225h305q89 0 113 6.5 t24 38.5v9q0 30 -27 38.5t-102 10.5l-229 10v242l229 16q95 2 114.5 11.5t19.5 35.5v10q0 12 -4 20.5t-14.5 14t-20 8.5t-28.5 4t-31 1.5t-36 0.5h-323zM500 0l954 1577h268l-954 -1577h-268zM1243 299l289 698h305l-215 -559h123v178l43 105h256v-283h82v-229l-82 -45v-160 h-299v160h-455z" />
<glyph unicode="&#xbf;" horiz-adv-x="1114" d="M45 -23q0 108 20.5 185t69.5 134t135 83t211 22v166h297v-454h-188q-79 -3 -114.5 -34t-35.5 -110v-30q0 -66 44 -96.5t134 -30.5h474v-297q-280 -75 -578 -62q-112 0 -203.5 37t-148 98t-87 134.5t-30.5 150.5v104zM465 680v240q0 47 51 47h232q22 0 35.5 -12.5 t13.5 -34.5v-240q0 -51 -49 -51h-232q-51 0 -51 51z" />
<glyph unicode="&#xc0;" horiz-adv-x="1456" d="M51 0l469 1499h469l455 -1499h-408l-88 262h-403l-86 -262h-408zM412 1925h297l157 -293h-223zM635 600h233l-108 401z" />
<glyph unicode="&#xc1;" horiz-adv-x="1456" d="M51 0l469 1499h469l455 -1499h-408l-88 262h-403l-86 -262h-408zM635 600h233l-108 401zM643 1632l158 293h297l-232 -293h-223z" />
<glyph unicode="&#xc2;" horiz-adv-x="1456" d="M51 0l469 1499h469l455 -1499h-408l-88 262h-403l-86 -262h-408zM425 1632l205 287h268l186 -287h-227l-100 105l-103 -105h-229zM635 600h233l-108 401z" />
<glyph unicode="&#xc3;" horiz-adv-x="1456" d="M51 0l469 1499h469l455 -1499h-408l-88 262h-403l-86 -262h-408zM398 1769q45 65 109 108.5t143 43.5q46 0 111.5 -36t105.5 -36q107 -5 191 82l53 -151q-41 -61 -99.5 -104.5t-129.5 -43.5q-45 0 -122 36t-116 36q-57 0 -98.5 -16.5t-91.5 -55.5zM635 600h233l-108 401z " />
<glyph unicode="&#xc4;" horiz-adv-x="1456" d="M51 0l469 1499h469l455 -1499h-408l-88 262h-403l-86 -262h-408zM359 1767q0 55 40 94.5t96 39.5q55 0 94 -39t39 -95t-39 -95.5t-94 -39.5q-56 0 -96 40t-40 95zM635 600h233l-108 401zM882 1767q0 55 39.5 94.5t95.5 39.5q55 0 94 -39t39 -95t-39 -95.5t-94 -39.5 t-95 40t-40 95z" />
<glyph unicode="&#xc5;" horiz-adv-x="1456" d="M51 0l469 1499h469l455 -1499h-408l-88 262h-403l-86 -262h-408zM547 1704q0 88 61.5 149.5t147.5 61.5t146.5 -61.5t60.5 -149.5t-60.5 -148.5t-146.5 -60.5q-87 0 -148 61t-61 148zM635 600h233l-108 401zM686 1704q0 -29 20 -48t50 -19q29 0 48 19t19 48q0 30 -19 50 t-48 20t-49.5 -20.5t-20.5 -49.5z" />
<glyph unicode="&#xc6;" horiz-adv-x="2009" d="M35 0l555 1130q48 98 114 169t135 111t155.5 62t163.5 27t171 0q389 0 629 -33v-333h-506q-31 0 -52 -7.5t-31.5 -16.5t-16 -27.5t-6 -30t-0.5 -33.5v-90l509 -23v-330l-509 -18v-90q0 -31 8.5 -52.5t18.5 -32t31 -16t32.5 -6t36.5 -0.5h485v-331q-94 -13 -246 -21.5 t-257 -11.5l-105 -2q-36 -4 -79.5 0t-88 11t-87 26.5t-75 46t-52.5 71t-20 99.5v94h-301l-172 -342h-440zM807 678h141v309z" />
<glyph unicode="&#xc7;" horiz-adv-x="1161" d="M63 754q0 150 14.5 264t50.5 210.5t95 158t148.5 95.5t210.5 34q214 0 308 -15t232 -67v-310l-12 2q-13 2 -35 5t-51.5 7t-67 7.5t-77 6.5t-85.5 5t-89 2q-101 0 -133 -11q-60 -20 -85 -102q-26 -89 -26 -296q0 -88 3.5 -147t14.5 -107t27.5 -75.5t45 -45.5t65 -24.5 t90.5 -6.5q96 0 199.5 4.5t159.5 9.5l56 4v-309q-99 -41 -209 -55t-331 -10q-278 4 -398.5 191t-120.5 575zM383 -211l76 31q42 19 49.5 33t7.5 73h240q0 -160 -55 -229.5t-193 -69.5h-125v162z" />
<glyph unicode="&#xc8;" horiz-adv-x="1161" d="M82 330v821q0 88 26.5 154t65 102t93.5 58t100 28t96 6q430 0 670 -33v-333h-547q-38 0 -61 -9t-32.5 -29t-11.5 -35t-2 -42v-90l551 -23v-330l-551 -18v-90q0 -31 8.5 -52.5t18.5 -32t31 -16t32.5 -6t36.5 -0.5h527v-331q-94 -13 -256.5 -21.5t-278.5 -11.5l-115 -2 q-49 -1 -94 3t-104 24t-101 54t-72 100t-30 155zM317 1927h297l158 -293h-223z" />
<glyph unicode="&#xc9;" horiz-adv-x="1161" d="M82 330v821q0 88 26.5 154t65 102t93.5 58t100 28t96 6q430 0 670 -33v-333h-547q-38 0 -61 -9t-32.5 -29t-11.5 -35t-2 -42v-90l551 -23v-330l-551 -18v-90q0 -31 8.5 -52.5t18.5 -32t31 -16t32.5 -6t36.5 -0.5h527v-331q-94 -13 -256.5 -21.5t-278.5 -11.5l-115 -2 q-49 -1 -94 3t-104 24t-101 54t-72 100t-30 155zM545 1632l157 293h297l-231 -293h-223z" />
<glyph unicode="&#xca;" horiz-adv-x="1161" d="M82 330v821q0 88 26.5 154t65 102t93.5 58t100 28t96 6q430 0 670 -33v-333h-547q-38 0 -61 -9t-32.5 -29t-11.5 -35t-2 -42v-90l551 -23v-330l-551 -18v-90q0 -31 8.5 -52.5t18.5 -32t31 -16t32.5 -6t36.5 -0.5h527v-331q-94 -13 -256.5 -21.5t-278.5 -11.5l-115 -2 q-49 -1 -94 3t-104 24t-101 54t-72 100t-30 155zM324 1632l204 287h269l186 -287h-227l-101 105l-102 -105h-229z" />
<glyph unicode="&#xcb;" horiz-adv-x="1161" d="M82 330v821q0 88 26.5 154t65 102t93.5 58t100 28t96 6q430 0 670 -33v-333h-547q-38 0 -61 -9t-32.5 -29t-11.5 -35t-2 -42v-90l551 -23v-330l-551 -18v-90q0 -31 8.5 -52.5t18.5 -32t31 -16t32.5 -6t36.5 -0.5h527v-331q-94 -13 -256.5 -21.5t-278.5 -11.5l-115 -2 q-49 -1 -94 3t-104 24t-101 54t-72 100t-30 155zM238 1767q0 55 39.5 94.5t95.5 39.5q55 0 94 -39t39 -95t-39 -95.5t-94 -39.5t-95 40t-40 95zM760 1767q0 55 39.5 94.5t95.5 39.5q55 0 94 -39t39 -95t-39 -95.5t-94 -39.5t-95 40t-40 95z" />
<glyph unicode="&#xcc;" horiz-adv-x="557" d="M-52 1925h297l157 -293h-223zM92 0v1499h397v-1499h-397z" />
<glyph unicode="&#xcd;" horiz-adv-x="557" d="M92 0v1499h397v-1499h-397zM179 1632l158 293h297l-232 -293h-223z" />
<glyph unicode="&#xce;" horiz-adv-x="557" d="M-39 1632l205 287h268l187 -287h-228l-100 105l-103 -105h-229zM92 0v1499h397v-1499h-397z" />
<glyph unicode="&#xcf;" horiz-adv-x="557" d="M-104 1767q0 55 39.5 94.5t95.5 39.5q55 0 94 -39t39 -95t-39 -95.5t-94 -39.5t-95 40t-40 95zM92 0v1499h397v-1499h-397zM418 1767q0 55 39.5 94.5t95.5 39.5q55 0 94 -39t39 -95t-39 -95.5t-94 -39.5t-95 40t-40 95z" />
<glyph unicode="&#xd0;" d="M-41 688v152h133v659h703q100 0 179.5 -26t134.5 -76.5t94 -116t61 -153.5t31.5 -180.5t9.5 -203.5q0 -388 -125 -565.5t-385 -177.5h-703v688h-133zM489 336h265q86 0 119.5 93.5t33.5 315.5q0 136 -9.5 221.5t-31.5 127.5t-47 55.5t-65 13.5h-265v-323h183v-152h-183 v-352z" />
<glyph unicode="&#xd1;" horiz-adv-x="1386" d="M92 0v1499h402l428 -766v766h397v-1499h-397l-430 745v-745h-400zM349 1769q45 65 109 108.5t143 43.5q46 0 111.5 -36t105.5 -36q107 -5 191 82l53 -151q-41 -61 -99.5 -104.5t-129.5 -43.5q-45 0 -122 36t-116 36q-58 0 -99.5 -16.5t-91.5 -55.5z" />
<glyph unicode="&#xd2;" d="M76 739q0 104 8 192t24 157.5t36.5 126t50.5 98.5t61.5 74t73 53t80.5 35t89.5 21.5t95 10t101.5 2.5q65 0 115 -3t106 -13t98 -27.5t85.5 -46.5t74.5 -70t59.5 -98.5t45.5 -131t27 -169.5t10 -211q0 -109 -9.5 -200t-26 -161.5t-43.5 -126.5t-58 -96t-73.5 -69.5 t-85.5 -47t-98.5 -28t-108 -14.5t-118.5 -4q-88 0 -151 5.5t-132.5 23.5t-116.5 50t-91.5 87.5t-71 134t-42 190.5t-15.5 256zM353 1925h297l158 -293h-223zM473 739q0 -85 2.5 -138t11 -101.5t22.5 -74t40 -45t60.5 -26t86.5 -6.5q91 0 137.5 32.5t66.5 114.5t20 244 q0 109 -6 177.5t-19 118t-40 73.5t-63.5 34.5t-95.5 10.5q-49 0 -79.5 -5t-58 -21t-42 -43t-25.5 -75t-14.5 -111.5t-3.5 -158.5z" />
<glyph unicode="&#xd3;" d="M76 739q0 104 8 192t24 157.5t36.5 126t50.5 98.5t61.5 74t73 53t80.5 35t89.5 21.5t95 10t101.5 2.5q65 0 115 -3t106 -13t98 -27.5t85.5 -46.5t74.5 -70t59.5 -98.5t45.5 -131t27 -169.5t10 -211q0 -109 -9.5 -200t-26 -161.5t-43.5 -126.5t-58 -96t-73.5 -69.5 t-85.5 -47t-98.5 -28t-108 -14.5t-118.5 -4q-88 0 -151 5.5t-132.5 23.5t-116.5 50t-91.5 87.5t-71 134t-42 190.5t-15.5 256zM473 739q0 -85 2.5 -138t11 -101.5t22.5 -74t40 -45t60.5 -26t86.5 -6.5q91 0 137.5 32.5t66.5 114.5t20 244q0 109 -6 177.5t-19 118t-40 73.5 t-63.5 34.5t-95.5 10.5q-49 0 -79.5 -5t-58 -21t-42 -43t-25.5 -75t-14.5 -111.5t-3.5 -158.5zM585 1632l157 293h297l-231 -293h-223z" />
<glyph unicode="&#xd4;" d="M76 739q0 104 8 192t24 157.5t36.5 126t50.5 98.5t61.5 74t73 53t80.5 35t89.5 21.5t95 10t101.5 2.5q65 0 115 -3t106 -13t98 -27.5t85.5 -46.5t74.5 -70t59.5 -98.5t45.5 -131t27 -169.5t10 -211q0 -109 -9.5 -200t-26 -161.5t-43.5 -126.5t-58 -96t-73.5 -69.5 t-85.5 -47t-98.5 -28t-108 -14.5t-118.5 -4q-88 0 -151 5.5t-132.5 23.5t-116.5 50t-91.5 87.5t-71 134t-42 190.5t-15.5 256zM367 1632l204 287h269l186 -287h-227l-101 105l-102 -105h-229zM473 739q0 -85 2.5 -138t11 -101.5t22.5 -74t40 -45t60.5 -26t86.5 -6.5 q91 0 137.5 32.5t66.5 114.5t20 244q0 109 -6 177.5t-19 118t-40 73.5t-63.5 34.5t-95.5 10.5q-49 0 -79.5 -5t-58 -21t-42 -43t-25.5 -75t-14.5 -111.5t-3.5 -158.5z" />
<glyph unicode="&#xd5;" d="M76 739q0 104 8 192t24 157.5t36.5 126t50.5 98.5t61.5 74t73 53t80.5 35t89.5 21.5t95 10t101.5 2.5q65 0 115 -3t106 -13t98 -27.5t85.5 -46.5t74.5 -70t59.5 -98.5t45.5 -131t27 -169.5t10 -211q0 -109 -9.5 -200t-26 -161.5t-43.5 -126.5t-58 -96t-73.5 -69.5 t-85.5 -47t-98.5 -28t-108 -14.5t-118.5 -4q-88 0 -151 5.5t-132.5 23.5t-116.5 50t-91.5 87.5t-71 134t-42 190.5t-15.5 256zM340 1769q45 65 109 108.5t143 43.5q46 0 111.5 -36t105.5 -36q107 -5 190 82l54 -151q-40 -61 -99.5 -104.5t-130.5 -43.5q-45 0 -121.5 36 t-115.5 36q-58 0 -99.5 -16.5t-91.5 -55.5zM473 739q0 -85 2.5 -138t11 -101.5t22.5 -74t40 -45t60.5 -26t86.5 -6.5q91 0 137.5 32.5t66.5 114.5t20 244q0 109 -6 177.5t-19 118t-40 73.5t-63.5 34.5t-95.5 10.5q-49 0 -79.5 -5t-58 -21t-42 -43t-25.5 -75t-14.5 -111.5 t-3.5 -158.5z" />
<glyph unicode="&#xd6;" d="M76 739q0 104 8 192t24 157.5t36.5 126t50.5 98.5t61.5 74t73 53t80.5 35t89.5 21.5t95 10t101.5 2.5q65 0 115 -3t106 -13t98 -27.5t85.5 -46.5t74.5 -70t59.5 -98.5t45.5 -131t27 -169.5t10 -211q0 -109 -9.5 -200t-26 -161.5t-43.5 -126.5t-58 -96t-73.5 -69.5 t-85.5 -47t-98.5 -28t-108 -14.5t-118.5 -4q-88 0 -151 5.5t-132.5 23.5t-116.5 50t-91.5 87.5t-71 134t-42 190.5t-15.5 256zM301 1767q0 55 39.5 94.5t95.5 39.5q55 0 94 -39t39 -95t-39 -95.5t-94 -39.5q-56 0 -95.5 40t-39.5 95zM473 739q0 -85 2.5 -138t11 -101.5 t22.5 -74t40 -45t60.5 -26t86.5 -6.5q91 0 137.5 32.5t66.5 114.5t20 244q0 109 -6 177.5t-19 118t-40 73.5t-63.5 34.5t-95.5 10.5q-49 0 -79.5 -5t-58 -21t-42 -43t-25.5 -75t-14.5 -111.5t-3.5 -158.5zM823 1767q0 55 39.5 94.5t95.5 39.5t95 -39.5t39 -94.5 q0 -56 -39.5 -95.5t-94.5 -39.5q-56 0 -95.5 40t-39.5 95z" />
<glyph unicode="&#xd7;" horiz-adv-x="952" d="M66 539l188 188l-188 191l221 223l190 -191l191 193l223 -223l-191 -193l191 -188l-223 -224l-191 189l-188 -189z" />
<glyph unicode="&#xd8;" horiz-adv-x="1396" d="M63 0l138 190q-107 175 -107 549q0 115 10.5 211t28 169.5t46.5 131.5t60.5 98.5t75.5 69.5t86 46.5t97.5 27.5t104.5 13t112 3q257 0 379 -73l45 63h176l-115 -160q135 -182 135 -600q0 -140 -15.5 -250t-42 -188t-70.5 -134t-92.5 -89.5t-116 -53t-132.5 -26t-151 -6.5 q-144 0 -243.5 18t-172.5 72l-59 -82h-177zM492 739q0 -98 2 -139l370 516q-42 37 -149 37q-49 0 -79.5 -5t-58 -21t-42 -43t-25.5 -75t-14.5 -111.5t-3.5 -158.5zM537 414q24 -36 66 -51t112 -15q91 0 137 32.5t66 114.5t20 244q0 151 -10 222z" />
<glyph unicode="&#xd9;" horiz-adv-x="1341" d="M92 655v844h397v-844q0 -51 1 -79t4.5 -66t11.5 -58.5t22 -44t35 -34.5t52.5 -19t72.5 -8q34 0 60.5 5t45.5 18t33 26t22.5 37t13.5 43.5t7.5 54t3 59t0.5 66.5v844h400v-844q0 -137 -21 -245t-50.5 -177t-82.5 -117.5t-95.5 -72.5t-113 -36.5t-111 -14.5t-112.5 -2 q-169 0 -238 12q-180 32 -265 176q-93 159 -93 477zM340 1925h297l158 -293h-224z" />
<glyph unicode="&#xda;" horiz-adv-x="1341" d="M92 655v844h397v-844q0 -51 1 -79t4.5 -66t11.5 -58.5t22 -44t35 -34.5t52.5 -19t72.5 -8q34 0 60.5 5t45.5 18t33 26t22.5 37t13.5 43.5t7.5 54t3 59t0.5 66.5v844h400v-844q0 -137 -21 -245t-50.5 -177t-82.5 -117.5t-95.5 -72.5t-113 -36.5t-111 -14.5t-112.5 -2 q-169 0 -238 12q-180 32 -265 176q-93 159 -93 477zM571 1632l158 293h297l-231 -293h-224z" />
<glyph unicode="&#xdb;" horiz-adv-x="1341" d="M92 655v844h397v-844q0 -51 1 -79t4.5 -66t11.5 -58.5t22 -44t35 -34.5t52.5 -19t72.5 -8q34 0 60.5 5t45.5 18t33 26t22.5 37t13.5 43.5t7.5 54t3 59t0.5 66.5v844h400v-844q0 -137 -21 -245t-50.5 -177t-82.5 -117.5t-95.5 -72.5t-113 -36.5t-111 -14.5t-112.5 -2 q-169 0 -238 12q-180 32 -265 176q-93 159 -93 477zM353 1632l205 287h268l187 -287h-228l-100 105l-102 -105h-230z" />
<glyph unicode="&#xdc;" horiz-adv-x="1341" d="M92 655v844h397v-844q0 -51 1 -79t4.5 -66t11.5 -58.5t22 -44t35 -34.5t52.5 -19t72.5 -8q34 0 60.5 5t45.5 18t33 26t22.5 37t13.5 43.5t7.5 54t3 59t0.5 66.5v844h400v-844q0 -137 -21 -245t-50.5 -177t-82.5 -117.5t-95.5 -72.5t-113 -36.5t-111 -14.5t-112.5 -2 q-169 0 -238 12q-180 32 -265 176q-93 159 -93 477zM288 1767q0 55 39.5 94.5t95.5 39.5q55 0 94 -39t39 -95t-39 -95.5t-94 -39.5t-95 40t-40 95zM810 1767q0 55 39.5 94.5t95.5 39.5q55 0 94 -39t39 -95t-39 -95.5t-94 -39.5t-95 40t-40 95z" />
<glyph unicode="&#xdd;" horiz-adv-x="1390" d="M51 1499h432l215 -663l232 663h432l-473 -1089v-410h-397v410zM595 1632l158 293h297l-232 -293h-223z" />
<glyph unicode="&#xde;" horiz-adv-x="1101" d="M70 0v1493h397v-289h219q54 0 100.5 -9.5t96 -38.5t84.5 -75.5t57.5 -126.5t22.5 -186q0 -87 -12.5 -157t-32 -117t-50 -82t-60 -54t-69 -31.5t-69.5 -16t-68 -5.5q-78 -3 -117.5 3t-101.5 36v-344h-397zM467 641h55q44 0 65 2.5t36.5 15.5t19.5 36t4 67q0 38 -7 60 t-26 32t-37 12t-55 2h-55v-227z" />
<glyph unicode="&#xdf;" horiz-adv-x="1175" d="M70 0v1159q0 91 31.5 170.5t93 142t163 98.5t230.5 36q139 0 245.5 -33.5t168 -89.5t94.5 -129t32 -153.5t-26.5 -161.5t-75.5 -154q-19 -28 -51 -61.5t-48 -57.5t-16 -53q0 -24 25 -49.5t61 -53.5t72 -62t61 -86.5t25 -115.5v-35q0 -77 -19.5 -135.5t-52 -94.5 t-80.5 -58t-99 -30.5t-113 -8.5q-95 0 -148.5 9.5t-114.5 29.5v268q99 -12 127 -12q103 0 103 98v12q0 33 -23 60.5t-56 50.5t-65.5 50t-55.5 70t-23 99q0 47 8.5 83.5t30 69t37.5 50.5t51 53q69 69 69 143q0 81 -29.5 109t-93.5 28q-91 0 -116 -57t-25 -223v-975h-397z" />
<glyph unicode="&#xe0;" horiz-adv-x="1062" d="M45 293v84q0 49 9.5 92.5t34 86t63.5 73t103 49t146 18.5q209 -2 209 0q2 13 0 15q0 23 -3.5 40t-7 28.5t-14.5 19t-17 11t-25 5.5t-26.5 2h-33.5l-401 -22v231q101 49 203.5 65.5t263.5 16.5q114 0 194 -16.5t142 -57.5t92.5 -116t30.5 -187v-731h-320l-78 111 q-8 -20 -23 -39t-41 -40.5t-69 -33.5t-96 -10q-74 3 -133.5 25t-96.5 53.5t-61.5 72.5t-34.5 79t-10 75zM206 1524h297l157 -293h-223zM442 358q0 -15 2.5 -27t5 -20t10 -13.5t10.5 -8.5t14 -4.5t13.5 -1.5h16h14.5q37 0 57.5 16.5t22.5 33.5l2 17v123l-106 -10 q-22 -2 -36 -10.5t-19 -23.5t-6 -25t-1 -28v-5v-13z" />
<glyph unicode="&#xe1;" horiz-adv-x="1062" d="M45 293v84q0 49 9.5 92.5t34 86t63.5 73t103 49t146 18.5q209 -2 209 0q2 13 0 15q0 23 -3.5 40t-7 28.5t-14.5 19t-17 11t-25 5.5t-26.5 2h-33.5l-401 -22v231q101 49 203.5 65.5t263.5 16.5q114 0 194 -16.5t142 -57.5t92.5 -116t30.5 -187v-731h-320l-78 111 q-8 -20 -23 -39t-41 -40.5t-69 -33.5t-96 -10q-74 3 -133.5 25t-96.5 53.5t-61.5 72.5t-34.5 79t-10 75zM437 1231l158 293h297l-232 -293h-223zM442 358q0 -15 2.5 -27t5 -20t10 -13.5t10.5 -8.5t14 -4.5t13.5 -1.5h16h14.5q37 0 57.5 16.5t22.5 33.5l2 17v123l-106 -10 q-22 -2 -36 -10.5t-19 -23.5t-6 -25t-1 -28v-5v-13z" />
<glyph unicode="&#xe2;" horiz-adv-x="1062" d="M45 293v84q0 49 9.5 92.5t34 86t63.5 73t103 49t146 18.5q209 -2 209 0q2 13 0 15q0 23 -3.5 40t-7 28.5t-14.5 19t-17 11t-25 5.5t-26.5 2h-33.5l-401 -22v231q101 49 203.5 65.5t263.5 16.5q114 0 194 -16.5t142 -57.5t92.5 -116t30.5 -187v-731h-320l-78 111 q-8 -20 -23 -39t-41 -40.5t-69 -33.5t-96 -10q-74 3 -133.5 25t-96.5 53.5t-61.5 72.5t-34.5 79t-10 75zM219 1231l205 287h268l187 -287h-228l-100 104l-102 -104h-230zM442 358q0 -15 2.5 -27t5 -20t10 -13.5t10.5 -8.5t14 -4.5t13.5 -1.5h16h14.5q37 0 57.5 16.5 t22.5 33.5l2 17v123l-106 -10q-22 -2 -36 -10.5t-19 -23.5t-6 -25t-1 -28v-5v-13z" />
<glyph unicode="&#xe3;" horiz-adv-x="1062" d="M45 293v84q0 49 9.5 92.5t34 86t63.5 73t103 49t146 18.5q209 -2 209 0q2 13 0 15q0 23 -3.5 40t-7 28.5t-14.5 19t-17 11t-25 5.5t-26.5 2h-33.5l-401 -22v231q101 49 203.5 65.5t263.5 16.5q114 0 194 -16.5t142 -57.5t92.5 -116t30.5 -187v-731h-320l-78 111 q-8 -20 -23 -39t-41 -40.5t-69 -33.5t-96 -10q-74 3 -133.5 25t-96.5 53.5t-61.5 72.5t-34.5 79t-10 75zM193 1368q105 152 251 152q46 0 112 -36t106 -36q107 -5 190 82l53 -152q-40 -61 -99 -104t-130 -43q-45 0 -122 36t-116 36q-57 0 -98.5 -16.5t-91.5 -55.5zM442 358 q0 -15 2.5 -27t5 -20t10 -13.5t10.5 -8.5t14 -4.5t13.5 -1.5h16h14.5q37 0 57.5 16.5t22.5 33.5l2 17v123l-106 -10q-22 -2 -36 -10.5t-19 -23.5t-6 -25t-1 -28v-5v-13z" />
<glyph unicode="&#xe4;" horiz-adv-x="1062" d="M45 293v84q0 49 9.5 92.5t34 86t63.5 73t103 49t146 18.5q209 -2 209 0q2 13 0 15q0 23 -3.5 40t-7 28.5t-14.5 19t-17 11t-25 5.5t-26.5 2h-33.5l-401 -22v231q101 49 203.5 65.5t263.5 16.5q114 0 194 -16.5t142 -57.5t92.5 -116t30.5 -187v-731h-320l-78 111 q-8 -20 -23 -39t-41 -40.5t-69 -33.5t-96 -10q-74 3 -133.5 25t-96.5 53.5t-61.5 72.5t-34.5 79t-10 75zM154 1366q0 55 39.5 94t95.5 39q55 0 94 -38.5t39 -94.5t-39 -95.5t-94 -39.5t-95 39.5t-40 95.5zM442 358q0 -15 2.5 -27t5 -20t10 -13.5t10.5 -8.5t14 -4.5 t13.5 -1.5h16h14.5q37 0 57.5 16.5t22.5 33.5l2 17v123l-106 -10q-22 -2 -36 -10.5t-19 -23.5t-6 -25t-1 -28v-5v-13zM676 1366q0 55 39.5 94t95.5 39q55 0 94 -38.5t39 -94.5t-39 -95.5t-94 -39.5t-95 39.5t-40 95.5z" />
<glyph unicode="&#xe5;" horiz-adv-x="1062" d="M45 293v84q0 49 9.5 92.5t34 86t63.5 73t103 49t146 18.5q209 -2 209 0q2 13 0 15q0 23 -3.5 40t-7 28.5t-14.5 19t-17 11t-25 5.5t-26.5 2h-33.5l-401 -22v231q101 49 203.5 65.5t263.5 16.5q114 0 194 -16.5t142 -57.5t92.5 -116t30.5 -187v-731h-320l-78 111 q-8 -20 -23 -39t-41 -40.5t-69 -33.5t-96 -10q-74 3 -133.5 25t-96.5 53.5t-61.5 72.5t-34.5 79t-10 75zM345 1440q0 88 61.5 149.5t147.5 61.5t146.5 -61.5t60.5 -149.5t-60.5 -148.5t-146.5 -60.5q-87 0 -148 61t-61 148zM442 358q0 -15 2.5 -27t5 -20t10 -13.5t10.5 -8.5 t14 -4.5t13.5 -1.5h16h14.5q37 0 57.5 16.5t22.5 33.5l2 17v123l-106 -10q-22 -2 -36 -10.5t-19 -23.5t-6 -25t-1 -28v-5v-13zM484 1440q0 -29 20.5 -48.5t49.5 -19.5t48.5 19.5t19.5 48.5t-19.5 49t-48.5 20t-49.5 -20t-20.5 -49z" />
<glyph unicode="&#xe6;" horiz-adv-x="1679" d="M45 293v63q0 63 16.5 116t54 101t110.5 75.5t175 27.5q209 -2 209 0q2 33 0 35q0 23 -3.5 40t-7 28.5t-14.5 19t-17 11t-25 5.5t-26.5 2h-33.5q-36 0 -136.5 -6t-182.5 -12l-82 -6v233q101 49 203.5 65.5t263.5 16.5q225 -8 307 -61q63 29 127 39t152 10q116 0 192 -8.5 t139 -32t97.5 -66.5t52.5 -109.5t18 -164.5q0 -82 -22 -136.5t-66.5 -83t-100 -40t-134.5 -11.5h-252q0 -43 12 -73t31 -47t53 -26.5t67 -12t85 -2.5q115 0 155.5 2.5t151.5 19.5v-258q-30 -14 -67 -24t-86 -16t-84.5 -10t-98.5 -5.5t-88.5 -2t-93 0t-76.5 0.5 q-200 0 -283 139q-27 -60 -139.5 -102t-216.5 -39q-74 3 -133.5 25t-96.5 53.5t-61.5 72.5t-34.5 79t-10 75zM442 348q0 -24 4.5 -39t15.5 -20.5t18 -7t25 0t23 1.5q37 0 57.5 16.5t22.5 33.5l2 17v103l-106 -11q-22 -2 -36 -10.5t-19 -23.5t-6 -25t-1 -28v-5v-2zM1059 676 h117q27 0 44 18t17 47q0 56 -11 68t-63 12q-61 0 -73 -5q-27 -12 -31 -74q-1 -25 0 -66z" />
<glyph unicode="&#xe7;" horiz-adv-x="1003" d="M57 545q0 155 26 265t75.5 172t112.5 89t145 27h43.5h55t59 -1.5t69 -4t69.5 -8t77 -13.5t75.5 -20t79.5 -27v-233q-123 12 -305 12h-6h-38t-32 -2t-28 -5t-22 -9.5t-19.5 -16t-14 -24t-11.5 -33.5t-7 -44.5t-5 -56.5t-1 -71q0 -48 1.5 -83t7 -62.5t10.5 -45.5t18 -30.5 t23.5 -19t33 -10.5t40 -4.5t50.5 -0.5q84 0 163.5 4t117.5 8l38 4v-233q-44 -31 -96.5 -49.5t-114.5 -24.5t-108.5 -7t-118 1t-104.5 2q-359 0 -359 555zM295 -215l76 31q42 19 49.5 33t7.5 73h240q0 -160 -55 -229.5t-193 -69.5h-125v162z" />
<glyph unicode="&#xe8;" horiz-adv-x="1075" d="M57 549q0 137 16.5 231t49 157t91 97.5t133 48t185.5 13.5q98 0 163.5 -5t126 -20.5t96 -42.5t63 -72.5t38.5 -110t11 -155.5q0 -159 -81.5 -225t-239.5 -66h-254q0 -27 5 -47t12 -33t21.5 -21t27.5 -12t36.5 -5t41.5 -0.5t49.5 1.5t53.5 1q116 0 156.5 2.5t151.5 19.5 v-258q-30 -14 -67 -24t-86 -16t-84.5 -10t-98.5 -5.5t-88.5 -2t-93 0t-76.5 0.5q-201 0 -280 133t-79 426zM204 1513h297l157 -292h-223zM455 651h118q26 0 43 18.5t17 47.5q0 62 -11.5 83t-60.5 21q-36 0 -54 -4.5t-32 -22t-18 -51t-2 -92.5z" />
<glyph unicode="&#xe9;" horiz-adv-x="1075" d="M57 549q0 137 16.5 231t49 157t91 97.5t133 48t185.5 13.5q98 0 163.5 -5t126 -20.5t96 -42.5t63 -72.5t38.5 -110t11 -155.5q0 -159 -81.5 -225t-239.5 -66h-254q0 -27 5 -47t12 -33t21.5 -21t27.5 -12t36.5 -5t41.5 -0.5t49.5 1.5t53.5 1q116 0 156.5 2.5t151.5 19.5 v-258q-30 -14 -67 -24t-86 -16t-84.5 -10t-98.5 -5.5t-88.5 -2t-93 0t-76.5 0.5q-201 0 -280 133t-79 426zM435 1221l158 292h297l-232 -292h-223zM455 651h118q26 0 43 18.5t17 47.5q0 62 -11.5 83t-60.5 21q-36 0 -54 -4.5t-32 -22t-18 -51t-2 -92.5z" />
<glyph unicode="&#xea;" horiz-adv-x="1075" d="M57 549q0 137 16.5 231t49 157t91 97.5t133 48t185.5 13.5q98 0 163.5 -5t126 -20.5t96 -42.5t63 -72.5t38.5 -110t11 -155.5q0 -159 -81.5 -225t-239.5 -66h-254q0 -27 5 -47t12 -33t21.5 -21t27.5 -12t36.5 -5t41.5 -0.5t49.5 1.5t53.5 1q116 0 156.5 2.5t151.5 19.5 v-258q-30 -14 -67 -24t-86 -16t-84.5 -10t-98.5 -5.5t-88.5 -2t-93 0t-76.5 0.5q-201 0 -280 133t-79 426zM203 1221l205 286h268l186 -286h-227l-100 104l-103 -104h-229zM455 651h118q26 0 43 18.5t17 47.5q0 62 -11.5 83t-60.5 21q-36 0 -54 -4.5t-32 -22t-18 -51 t-2 -92.5z" />
<glyph unicode="&#xeb;" horiz-adv-x="1075" d="M57 549q0 137 16.5 231t49 157t91 97.5t133 48t185.5 13.5q98 0 163.5 -5t126 -20.5t96 -42.5t63 -72.5t38.5 -110t11 -155.5q0 -159 -81.5 -225t-239.5 -66h-254q0 -27 5 -47t12 -33t21.5 -21t27.5 -12t36.5 -5t41.5 -0.5t49.5 1.5t53.5 1q116 0 156.5 2.5t151.5 19.5 v-258q-30 -14 -67 -24t-86 -16t-84.5 -10t-98.5 -5.5t-88.5 -2t-93 0t-76.5 0.5q-201 0 -280 133t-79 426zM137 1356q0 55 39.5 94t95.5 39t95 -39t39 -94q0 -56 -39.5 -95.5t-94.5 -39.5q-56 0 -95.5 39.5t-39.5 95.5zM455 651h118q26 0 43 18.5t17 47.5q0 62 -11.5 83 t-60.5 21q-36 0 -54 -4.5t-32 -22t-18 -51t-2 -92.5zM659 1356q0 55 40 94t96 39q55 0 94 -38.5t39 -94.5t-39 -95.5t-94 -39.5q-56 0 -96 40t-40 95z" />
<glyph unicode="&#xec;" horiz-adv-x="534" d="M-75 1513h297l158 -292h-223zM70 0v1087h397v-1087h-397z" />
<glyph unicode="&#xed;" horiz-adv-x="534" d="M70 0v1087h397v-1087h-397zM157 1221l157 292h297l-231 -292h-223z" />
<glyph unicode="&#xee;" horiz-adv-x="534" d="M-61 1221l204 286h269l186 -286h-227l-101 104l-102 -104h-229zM70 0v1087h397v-1087h-397z" />
<glyph unicode="&#xef;" horiz-adv-x="534" d="M-127 1356q0 55 39.5 94t95.5 39t94.5 -38.5t38.5 -94.5t-39 -95.5t-94 -39.5q-56 0 -95.5 39.5t-39.5 95.5zM70 0v1087h397v-1087h-397zM395 1356q0 55 39.5 94t95.5 39t95 -39t39 -94q0 -56 -39.5 -95.5t-94.5 -39.5q-56 0 -95.5 39.5t-39.5 95.5z" />
<glyph unicode="&#xf0;" horiz-adv-x="1112" d="M45 541q0 546 397 546h41q123 0 164 -10q-25 88 -90 140l-180 -103l-66 115l86 49q-78 12 -250 8v318q394 0 603 -125l147 82l66 -115l-99 -55q118 -122 159.5 -324t41.5 -526q0 -148 -30.5 -256t-86.5 -168.5t-125 -88.5t-155 -28h-226q-209 0 -303 131.5t-94 409.5z M442 541q0 -119 12.5 -150t73.5 -31h58q60 0 71 27t11 154q0 137 -11 163.5t-71 26.5h-58q-53 0 -69.5 -35.5t-16.5 -154.5z" />
<glyph unicode="&#xf1;" horiz-adv-x="1136" d="M70 0v1087h331l66 -106q28 26 42 38t44 32.5t56.5 29.5t67.5 17t89 8q59 0 106.5 -11t80 -29.5t56 -49t37.5 -62.5t22 -77t10.5 -86t2.5 -95v-696h-397v705q0 62 -16 84t-52 22q-114 0 -149 -76v-735h-397zM219 1366q45 65 109 108.5t143 43.5q46 0 111.5 -36t105.5 -36 q107 -5 191 82l53 -152q-40 -61 -99.5 -104t-130.5 -43q-45 0 -121.5 35.5t-115.5 35.5q-58 0 -100 -16.5t-91 -54.5z" />
<glyph unicode="&#xf2;" horiz-adv-x="1134" d="M57 528q0 135 17.5 230t53 162t97.5 105.5t144 55.5t198 17q194 0 303 -53t158 -175.5t49 -341.5q0 -155 -24.5 -255t-84.5 -164.5t-156 -91.5t-245 -27q-145 0 -241.5 29t-157 95t-86 165.5t-25.5 248.5zM224 1513h297l158 -292h-223zM455 528q0 -60 1 -93.5t5 -64.5 t10.5 -44.5t20.5 -24.5t30.5 -13.5t44.5 -2.5q83 0 98 34.5t15 208.5q0 172 -9 212q-11 47 -50 58q-20 5 -54 5q-81 0 -96.5 -37.5t-15.5 -192.5v-45z" />
<glyph unicode="&#xf3;" horiz-adv-x="1134" d="M57 528q0 135 17.5 230t53 162t97.5 105.5t144 55.5t198 17q194 0 303 -53t158 -175.5t49 -341.5q0 -155 -24.5 -255t-84.5 -164.5t-156 -91.5t-245 -27q-145 0 -241.5 29t-157 95t-86 165.5t-25.5 248.5zM455 528q0 -60 1 -93.5t5 -64.5t10.5 -44.5t20.5 -24.5 t30.5 -13.5t44.5 -2.5q83 0 98 34.5t15 208.5q0 172 -9 212q-11 47 -50 58q-20 5 -54 5q-81 0 -96.5 -37.5t-15.5 -192.5v-45zM456 1221l157 292h297l-231 -292h-223z" />
<glyph unicode="&#xf4;" horiz-adv-x="1134" d="M57 528q0 135 17.5 230t53 162t97.5 105.5t144 55.5t198 17q194 0 303 -53t158 -175.5t49 -341.5q0 -155 -24.5 -255t-84.5 -164.5t-156 -91.5t-245 -27q-145 0 -241.5 29t-157 95t-86 165.5t-25.5 248.5zM238 1221l204 286h269l186 -286h-227l-101 104l-102 -104h-229z M455 528q0 -60 1 -93.5t5 -64.5t10.5 -44.5t20.5 -24.5t30.5 -13.5t44.5 -2.5q83 0 98 34.5t15 208.5q0 172 -9 212q-11 47 -50 58q-20 5 -54 5q-81 0 -96.5 -37.5t-15.5 -192.5v-45z" />
<glyph unicode="&#xf5;" horiz-adv-x="1134" d="M57 528q0 135 17.5 230t53 162t97.5 105.5t144 55.5t198 17q194 0 303 -53t158 -175.5t49 -341.5q0 -155 -24.5 -255t-84.5 -164.5t-156 -91.5t-245 -27q-145 0 -241.5 29t-157 95t-86 165.5t-25.5 248.5zM211 1358q44 64 108.5 107.5t143.5 43.5q46 0 111.5 -35.5 t105.5 -35.5q107 -5 190 82l54 -152q-40 -61 -99.5 -104t-130.5 -43q-45 0 -121.5 35.5t-115.5 35.5q-58 0 -100 -16.5t-91 -54.5zM455 528q0 -60 1 -93.5t5 -64.5t10.5 -44.5t20.5 -24.5t30.5 -13.5t44.5 -2.5q83 0 98 34.5t15 208.5q0 172 -9 212q-11 47 -50 58 q-20 5 -54 5q-81 0 -96.5 -37.5t-15.5 -192.5v-45z" />
<glyph unicode="&#xf6;" horiz-adv-x="1134" d="M57 528q0 135 17.5 230t53 162t97.5 105.5t144 55.5t198 17q194 0 303 -53t158 -175.5t49 -341.5q0 -155 -24.5 -255t-84.5 -164.5t-156 -91.5t-245 -27q-145 0 -241.5 29t-157 95t-86 165.5t-25.5 248.5zM172 1356q0 55 39.5 94t95.5 39q55 0 94 -38.5t39 -94.5 t-39 -95.5t-94 -39.5t-95 39.5t-40 95.5zM455 528q0 -60 1 -93.5t5 -64.5t10.5 -44.5t20.5 -24.5t30.5 -13.5t44.5 -2.5q83 0 98 34.5t15 208.5q0 172 -9 212q-11 47 -50 58q-20 5 -54 5q-81 0 -96.5 -37.5t-15.5 -192.5v-45zM694 1356q0 55 39.5 94t95.5 39t95 -39t39 -94 q0 -56 -39.5 -95.5t-94.5 -39.5t-95 39.5t-40 95.5z" />
<glyph unicode="&#xf7;" horiz-adv-x="989" d="M57 565v316h875v-316h-875zM338 287v157q0 52 49 52h191q51 0 51 -52v-157q0 -47 -51 -47h-191q-22 0 -35.5 12.5t-13.5 34.5zM338 989v158q0 51 49 51h191q51 0 51 -51v-158q0 -47 -51 -47h-191q-22 0 -35.5 12.5t-13.5 34.5z" />
<glyph unicode="&#xf8;" horiz-adv-x="1212" d="M57 0l125 147q-84 122 -84 381q0 135 17.5 230t53 162t97.5 105.5t144 55.5t198 17q215 0 326 -64l45 53h176l-123 -145q86 -127 86 -414q0 -155 -24.5 -255t-84.5 -164.5t-156 -91.5t-245 -27q-214 0 -327 65l-48 -55h-176zM496 516l209 246q-10 24 -32.5 32.5 t-64.5 8.5q-81 0 -96.5 -37.5t-15.5 -192.5v-45v-12zM512 328q10 -26 31.5 -34.5t64.5 -8.5q83 0 98 34.5t15 208.5v47z" />
<glyph unicode="&#xf9;" horiz-adv-x="1136" d="M57 391v696h398v-704q0 -62 15.5 -84.5t51.5 -22.5q115 0 150 76v735h397v-1087h-332l-65 106q-21 -13 -61.5 -42.5t-63 -43t-69 -26t-105.5 -12.5q-83 0 -141.5 21.5t-92 55.5t-52.5 90t-24.5 110.5t-5.5 131.5zM220 1513h297l158 -292h-223z" />
<glyph unicode="&#xfa;" horiz-adv-x="1136" d="M57 391v696h398v-704q0 -62 15.5 -84.5t51.5 -22.5q115 0 150 76v735h397v-1087h-332l-65 106q-21 -13 -61.5 -42.5t-63 -43t-69 -26t-105.5 -12.5q-83 0 -141.5 21.5t-92 55.5t-52.5 90t-24.5 110.5t-5.5 131.5zM452 1221l157 292h297l-231 -292h-223z" />
<glyph unicode="&#xfb;" horiz-adv-x="1136" d="M57 391v696h398v-704q0 -62 15.5 -84.5t51.5 -22.5q115 0 150 76v735h397v-1087h-332l-65 106q-21 -13 -61.5 -42.5t-63 -43t-69 -26t-105.5 -12.5q-83 0 -141.5 21.5t-92 55.5t-52.5 90t-24.5 110.5t-5.5 131.5zM233 1221l205 286h269l186 -286h-227l-101 104l-102 -104 h-230z" />
<glyph unicode="&#xfc;" horiz-adv-x="1136" d="M57 391v696h398v-704q0 -62 15.5 -84.5t51.5 -22.5q115 0 150 76v735h397v-1087h-332l-65 106q-21 -13 -61.5 -42.5t-63 -43t-69 -26t-105.5 -12.5q-83 0 -141.5 21.5t-92 55.5t-52.5 90t-24.5 110.5t-5.5 131.5zM168 1356q0 55 39.5 94t95.5 39q55 0 94 -38.5t39 -94.5 t-39 -95.5t-94 -39.5t-95 39.5t-40 95.5zM690 1356q0 55 39.5 94t95.5 39q55 0 94 -38.5t39 -94.5t-39 -95.5t-94 -39.5t-95 39.5t-40 95.5z" />
<glyph unicode="&#xfd;" horiz-adv-x="1226" d="M25 1087h411l125 -688q14 -76 88 -80l142 768h403l-293 -1431l-145 -209h-295l121 553q-316 0 -387 319zM498 1221l157 292h297l-231 -292h-223z" />
<glyph unicode="&#xfe;" horiz-adv-x="1142" d="M80 -553v2155h397v-629q68 58 126 85t142 27q184 0 268.5 -130t84.5 -420q0 -78 -4 -140t-14.5 -122t-27.5 -105.5t-44 -84t-64 -63t-87 -38t-112 -13.5q-161 0 -268 70v-592h-397zM477 285q27 -31 133 -31q32 0 49.5 16t29 74.5t11.5 169.5q0 108 -11 164t-28.5 71 t-50.5 15q-107 0 -133 -45v-434z" />
<glyph unicode="&#xff;" horiz-adv-x="1226" d="M25 1087h411l125 -688q14 -76 88 -80l142 768h403l-293 -1431l-145 -209h-295l121 553q-316 0 -387 319zM214 1356q0 55 39.5 94t95.5 39q55 0 94 -38.5t39 -94.5t-39 -95.5t-94 -39.5t-95 39.5t-40 95.5zM736 1356q0 55 39.5 94t95.5 39t95 -39t39 -94 q0 -56 -39.5 -95.5t-94.5 -39.5t-95 39.5t-40 95.5z" />
<glyph unicode="&#x152;" horiz-adv-x="1988" d="M76 739q0 104 8 192t24 157.5t36.5 126t50.5 98.5t61.5 74t73 53t80.5 35t89.5 21.5t95 10t101.5 2.5q237 0 357 -61q94 58 245 51q389 0 629 -33v-333h-506q-31 0 -52 -7.5t-31.5 -16.5t-16 -27.5t-6 -30t-0.5 -33.5v-90l510 -23v-330l-510 -18v-90q0 -31 8.5 -52.5 t18.5 -32t31 -16t32.5 -6t36.5 -0.5h485v-331q-94 -13 -246 -21.5t-257 -11.5l-105 -2q-179 -10 -279 53q-117 -55 -344 -55q-88 0 -151 5.5t-132.5 23.5t-116.5 50t-91.5 87.5t-71 134t-42 190.5t-15.5 256zM473 739q0 -85 2.5 -138t11 -101.5t22.5 -74t40 -45t60.5 -26 t86.5 -6.5q91 0 137 32.5t65.5 114.5t19.5 244q0 109 -5.5 177t-18.5 118t-40 74t-63 34.5t-95 10.5q-49 0 -79.5 -5t-58 -21t-42 -43t-25.5 -75t-14.5 -111.5t-3.5 -158.5z" />
<glyph unicode="&#x153;" horiz-adv-x="1697" d="M57 528q0 135 17.5 230t53 162t97.5 105.5t144 55.5t198 17q191 0 297 -49q97 47 291 47q98 0 163.5 -5t126 -20.5t96 -42.5t63 -72.5t38.5 -110t11 -155.5q0 -159 -82 -225t-240 -66h-254q0 -27 5 -47t12 -33t22 -21t28 -12t36.5 -5t41.5 -0.5t49.5 1.5t53.5 1 q115 0 155.5 2.5t151.5 19.5v-258q-30 -14 -67 -24t-86 -16t-84.5 -10t-98.5 -5.5t-88.5 -2t-93 0t-76.5 0.5q-110 0 -184 41q-105 -41 -287 -41q-145 0 -241.5 29t-157 95t-86 165.5t-25.5 248.5zM455 528q0 -60 1 -93.5t5 -64.5t10.5 -44.5t20.5 -24.5t30.5 -13.5 t44.5 -2.5q82 0 97.5 37t15.5 196v31q0 171 -16 212.5t-97 41.5t-96.5 -37.5t-15.5 -192.5v-45zM1077 651h119q26 0 42.5 18.5t16.5 47.5q0 63 -11 83.5t-60 20.5q-47 0 -68 -10t-31 -46t-8 -114z" />
<glyph unicode="&#x178;" horiz-adv-x="1390" d="M51 1499h432l215 -663l232 663h432l-473 -1089v-410h-397v410zM311 1767q0 55 39.5 94.5t95.5 39.5t95 -39.5t39 -94.5q0 -56 -39.5 -95.5t-94.5 -39.5q-56 0 -95.5 40t-39.5 95zM834 1767q0 55 39.5 94.5t95.5 39.5q55 0 94 -39t39 -95t-39 -95.5t-94 -39.5t-95 40 t-40 95z" />
<glyph unicode="&#x2c6;" horiz-adv-x="774" d="M57 1087l205 287h268l187 -287h-228l-100 105l-102 -105h-230zM530 1374z" />
<glyph unicode="&#x2dc;" horiz-adv-x="827" d="M57 1225q44 64 108.5 107.5t143.5 43.5q46 0 111.5 -35.5t105.5 -35.5q108 -5 191 81l53 -151q-41 -61 -99.5 -104.5t-129.5 -43.5q-45 0 -122 36t-116 36q-57 0 -98.5 -16.5t-91.5 -55.5z" />
<glyph unicode="&#x2000;" horiz-adv-x="965" />
<glyph unicode="&#x2001;" horiz-adv-x="1931" />
<glyph unicode="&#x2002;" horiz-adv-x="965" />
<glyph unicode="&#x2003;" horiz-adv-x="1931" />
<glyph unicode="&#x2004;" horiz-adv-x="643" />
<glyph unicode="&#x2005;" horiz-adv-x="482" />
<glyph unicode="&#x2006;" horiz-adv-x="321" />
<glyph unicode="&#x2007;" horiz-adv-x="321" />
<glyph unicode="&#x2008;" horiz-adv-x="241" />
<glyph unicode="&#x2009;" horiz-adv-x="386" />
<glyph unicode="&#x200a;" horiz-adv-x="107" />
<glyph unicode="&#x2010;" horiz-adv-x="724" d="M41 436v316h643v-316h-643z" />
<glyph unicode="&#x2011;" horiz-adv-x="724" d="M41 436v316h643v-316h-643z" />
<glyph unicode="&#x2012;" horiz-adv-x="724" d="M41 436v316h643v-316h-643z" />
<glyph unicode="&#x2013;" horiz-adv-x="1050" d="M41 430v318h969v-318h-969z" />
<glyph unicode="&#x2014;" horiz-adv-x="1507" d="M41 434v318h1425v-318h-1425z" />
<glyph unicode="&#x2018;" horiz-adv-x="512" d="M92 989v328q0 55 17.5 96t45.5 62t62 33.5t68 14.5t62 1t45 -4l18 -4v-148q-64 0 -64 -63v-31h23q23 0 37 -13t14 -38v-234q0 -55 -51 -55h-228q-49 0 -49 55z" />
<glyph unicode="&#x2019;" horiz-adv-x="512" d="M92 1235v233q0 56 51 56h228q49 0 49 -56v-327q0 -55 -17.5 -96t-45.5 -62t-62 -33.5t-68 -14.5t-62 -1t-45 4l-18 4v148q64 0 64 63v31h-23q-23 0 -37 13t-14 38z" />
<glyph unicode="&#x201a;" horiz-adv-x="512" d="M92 51v234q0 55 51 55h228q49 0 49 -55v-328q0 -55 -17.5 -96t-45.5 -62t-62 -33.5t-68 -14.5t-62 -1t-45 4l-18 4v148q64 0 64 63v31h-23q-23 0 -37 13t-14 38z" />
<glyph unicode="&#x201c;" horiz-adv-x="884" d="M84 985v328q0 55 17.5 96t45.5 62t61.5 33.5t67.5 14t62 0.5t46 -5l17 -3v-147q-63 0 -63 -64v-30h22q23 0 37.5 -13t14.5 -38v-234q0 -55 -52 -55h-227q-49 0 -49 55zM475 985v328q0 55 17.5 96t45.5 62t62 33.5t68 14t62 0.5t46 -5l17 -3v-147q-64 0 -64 -64v-30h23 q23 0 37 -13t14 -38v-234q0 -55 -51 -55h-228q-49 0 -49 55z" />
<glyph unicode="&#x201d;" horiz-adv-x="884" d="M84 1231v233q0 56 51 56h227q50 0 50 -56v-327q0 -55 -17.5 -96t-45.5 -62t-62 -33.5t-68 -14.5t-62 -1t-45 4l-18 4v147q64 0 64 64v31h-23q-23 0 -37 13t-14 38zM475 1231v233q0 56 51 56h228q49 0 49 -56v-327q0 -55 -17.5 -96t-45.5 -62t-62 -33.5t-68 -14.5t-62 -1 t-46 4l-17 4v147q64 0 64 64v31h-23q-23 0 -37 13t-14 38z" />
<glyph unicode="&#x201e;" horiz-adv-x="884" d="M84 51v234q0 55 51 55h227q50 0 50 -55v-328q0 -55 -17.5 -96t-45.5 -62t-62 -33.5t-68 -14.5t-62 -1t-45 4l-18 4v148q64 0 64 63v31h-23q-23 0 -37 13t-14 38zM475 51v234q0 55 51 55h228q49 0 49 -55v-328q0 -55 -17.5 -96t-45.5 -62t-62 -33.5t-68 -14.5t-62 -1 t-46 4l-17 4v148q64 0 64 63v31h-23q-23 0 -37 13t-14 38z" />
<glyph unicode="&#x2022;" horiz-adv-x="628" d="M98 627v307q0 33 17.5 52.5t50.5 19.5h295q71 0 71 -72v-307q0 -66 -71 -66h-295q-31 0 -49.5 17.5t-18.5 48.5z" />
<glyph unicode="&#x2026;" horiz-adv-x="1640" d="M49 47v240q0 51 49 51h232q51 0 51 -51v-240q0 -47 -51 -47h-232q-22 0 -35.5 12.5t-13.5 34.5zM606 47v240q0 51 49 51h232q51 0 51 -51v-240q0 -47 -51 -47h-232q-22 0 -35.5 12.5t-13.5 34.5zM1163 47v240q0 51 49 51h232q51 0 51 -51v-240q0 -47 -51 -47h-232 q-22 0 -35.5 12.5t-13.5 34.5z" />
<glyph unicode="&#x202f;" horiz-adv-x="386" />
<glyph unicode="&#x2039;" horiz-adv-x="729" d="M57 725l422 416l199 -195l-225 -221l227 -225l-191 -201z" />
<glyph unicode="&#x203a;" horiz-adv-x="729" d="M57 500l228 225l-226 221l199 195l422 -416l-432 -426z" />
<glyph unicode="&#x205f;" horiz-adv-x="482" />
<glyph unicode="&#x20ac;" horiz-adv-x="1275" d="M23 502v178l139 14v84l-139 17v170l139 18q0 41 2.5 76.5t13.5 93t31 103t59 96.5t92 85t136 56.5t186 22.5q115 0 281 -19.5t282 -62.5v-285q-272 31 -440 31q-169 0 -214 -46q-30 -29 -32 -107v-44l479 -14v-176l-479 -15v-84l479 -14v-178q-31 -1 -81 -2t-155.5 -4 t-175 -5.5t-67.5 -3.5q0 -39 8 -69t19 -49t33.5 -32.5t38 -20t47.5 -9.5t48 -3.5t52 -0.5q78 0 190 13.5t185 27.5l73 14v-278q-97 -56 -228 -74t-343 -18q-41 0 -79 3t-92.5 15t-100 32t-93 58t-80.5 89t-54 128.5t-21 173.5z" />
<glyph unicode="&#x2122;" horiz-adv-x="1466" d="M23 1307v192h612v-192h-189v-523h-233v523h-190zM633 784l96 715h248l67 -366l46 366h256l104 -715h-233l-41 349l-27 -349h-211l-41 344l-31 -344h-233z" />
<glyph unicode="&#x25fc;" horiz-adv-x="1085" d="M0 0v1085h1085v-1085h-1085z" />
<glyph unicode="&#xfb03;" horiz-adv-x="2123" d="M23 813v240l202 34v183q0 46 11 90t36 86t62.5 73.5t95.5 50.5t129 19q184 0 287 -49v-229l-129 2q-26 1 -43 -6t-26.5 -15t-15 -30t-7 -36.5t-3.5 -48.5v-4.5t-0.5 -3.5t-0.5 -4v-4v-74h350v60q0 192 130.5 324.5t348.5 138.5q116 2 307.5 -10t243.5 -39v-228l-395 2 q-36 0 -64.5 -3.5t-62.5 -16t-57 -34.5t-38.5 -61.5t-15.5 -93.5v-39l688 -20v-1067h-397v813h-291v-813h-397v813h-350v-813h-400v813h-198z" />
<glyph unicode="&#xfb04;" horiz-adv-x="2295" d="M23 813v240l202 34v183q0 46 11 90t36 86t62.5 73.5t95.5 50.5t129 19q184 0 287 -49v-229l-129 2q-27 1 -45 -6.5t-28 -17t-15 -33t-6 -41t-2 -54.5v-74h360v80q0 110 25 191t65 129t102 76t124 37.5t143 9.5l659 -6v-1135q0 -97 18 -135t58 -60q86 -43 100 -43v-231 h-282q-151 0 -221 88t-70 299v946l-189 2q-77 0 -106 -36.5t-29 -131.5v-80h201v-274h-201v-813h-397v813h-360v-813h-400v813h-198z" />
</font>
</defs>
</svg>
